<svg id="Layer_1" data-name="Layer 1" xmlns="http://www.w3.org/2000/svg" viewBox="0 0 427 505.11"><defs><style>.cls-1,.cls-5,.cls-6,.cls-9{fill:none;}.cls-1,.cls-3,.cls-5{stroke:#ffc42d;}.cls-1,.cls-3,.cls-6,.cls-7{stroke-linejoin:round;}.cls-1,.cls-3,.cls-5,.cls-6,.cls-7,.cls-9{stroke-width:5px;}.cls-2,.cls-3,.cls-7{fill:#fff;}.cls-4{fill:#ffc42d;}.cls-6,.cls-7,.cls-9{stroke:#32c924;}.cls-8{fill:#32c924;}</style></defs><path class="cls-1" d="M128,264.29c42,0,76-16.61,76-37.09s-34-37.09-76-37.09-76,16.6-76,37.09S86,264.29,128,264.29Z"/><path class="cls-1" d="M128.38,249.6c28,0,50.67-10.36,50.67-23.14s-22.68-23.13-50.67-23.13S77.7,213.69,77.7,226.46,100.39,249.6,128.38,249.6Z"/><path class="cls-1" d="M128,234.91c9.13,0,16.53-3.62,16.53-8.08s-7.4-8.08-16.53-8.08-16.52,3.62-16.52,8.08S118.89,234.91,128,234.91Z"/><rect class="cls-2" x="112.96" y="217.28" width="30.11" height="9.55"/><path class="cls-3" d="M128,224.63c9.13,0,16.53-3.29,16.53-7.35s-7.4-7.34-16.53-7.34-16.52,3.29-16.52,7.34S118.89,224.63,128,224.63Z"/><path class="cls-1" d="M128.75,499.3c42,0,76-19.07,76-42.6s-34-42.59-76-42.59-76,19.07-76,42.59S86.77,499.3,128.75,499.3Z"/><rect class="cls-2" x="54.2" y="408.23" width="150.56" height="49.21"/><path class="cls-1" d="M204.76,458.17,204,226.83"/><path class="cls-1" d="M52.73,457.44l-.36-226.7"/><path class="cls-4" d="M85.42,258.65,66,247.39V480l23.51,14.61,33.78,4.66V265.64Z"/><path class="cls-5" d="M111.49,217.28v9.55m33.05-9.55v9.55"/><path class="cls-6" d="M330.88,216.33c51.06,0,92.45-20.19,92.45-45.11s-41.39-45.11-92.45-45.11-92.46,20.2-92.46,45.11S279.81,216.33,330.88,216.33Z"/><path class="cls-6" d="M331.64,198.61c34,0,61.64-12.6,61.64-28.14s-27.6-28.14-61.64-28.14S270,154.93,270,170.47,297.6,198.61,331.64,198.61Z"/><path class="cls-6" d="M332,180.34c11.1,0,20.1-4.4,20.1-9.83s-9-9.82-20.1-9.82-20.1,4.4-20.1,9.82S320.86,180.34,332,180.34Z"/><rect class="cls-2" x="313.33" y="158.48" width="37.46" height="11.75"/><path class="cls-7" d="M332,168.27c11.1,0,20.1-4,20.1-8.93s-9-8.93-20.1-8.93-20.1,4-20.1,8.93S320.86,168.27,332,168.27Z"/><path class="cls-6" d="M331.77,502.19c51.06,0,92.46-23.2,92.46-51.81s-41.4-51.81-92.46-51.81-92.46,23.19-92.46,51.81S280.71,502.19,331.77,502.19Z"/><rect class="cls-2" x="241.1" y="391.42" width="183.13" height="59.85"/><path class="cls-6" d="M424.23,452.17l-.9-281.39"/><path class="cls-6" d="M239.31,451.27l-.44-275.73"/><path class="cls-8" d="M279.07,209.48l-23.68-13.69v283L284,496.53l41.09,5.66V218Z"/><path class="cls-9" d="M311.86,159.16v11.62m40.2-11.62v11.62"/></svg>