<svg width="813" height="519" viewBox="0 0 813 519" fill="none" xmlns="http://www.w3.org/2000/svg">
<path d="M90.6907 32.5839C116.193 23.3158 121.906 1.82626 131.057 0.835328C196.515 0.835331 696.014 0.1748 711.864 0.1748C734.323 16.471 759.143 28.5625 785.291 35.9455C785.582 36.0216 785.885 36.0254 786.177 35.9566C786.47 35.8879 786.744 35.7483 786.98 35.5484C787.216 35.3486 787.407 35.0935 787.539 34.8023C787.672 34.511 787.742 34.1911 787.744 33.8664L787.744 28.6009C788.389 25.3367 801.319 25.8418 804.794 28.3094C815.109 38.8988 815.109 383.451 804.794 394.021C801.319 396.488 788.389 396.993 787.744 393.729L787.744 388.483C787.744 388.157 787.676 387.835 787.545 387.541C787.414 387.247 787.223 386.99 786.987 386.788C786.751 386.586 786.475 386.445 786.182 386.375C785.888 386.305 785.583 386.308 785.291 386.385C759.14 393.769 734.319 405.867 711.864 422.175C696.014 422.175 196.515 421.514 131.057 421.514C121.906 420.523 116.193 399.014 90.6907 389.766C65.1882 380.517 65.0987 41.8326 90.6907 32.5839Z" fill="#FFC42D"/>
<path d="M19.6907 128.584C45.1931 119.316 50.906 97.8263 60.0575 96.8353C125.515 96.8353 625.014 96.1748 640.864 96.1748C663.323 112.471 688.143 124.562 714.291 131.945C714.582 132.022 714.885 132.025 715.177 131.957C715.47 131.888 715.744 131.748 715.98 131.548C716.216 131.349 716.407 131.094 716.539 130.802C716.672 130.511 716.742 130.191 716.744 129.866L716.744 124.601C717.389 121.337 730.319 121.842 733.794 124.309C744.109 134.899 744.109 479.451 733.794 490.021C730.319 492.488 717.389 492.993 716.744 489.729L716.744 484.483C716.744 484.157 716.676 483.835 716.545 483.541C716.414 483.247 716.223 482.99 715.987 482.788C715.751 482.586 715.475 482.445 715.182 482.375C714.888 482.305 714.583 482.308 714.291 482.385C688.14 489.769 663.319 501.867 640.864 518.175C625.014 518.175 125.515 517.514 60.0575 517.514C50.906 516.523 45.193 495.014 19.6907 485.766C-5.81178 476.517 -5.90131 137.833 19.6907 128.584Z" fill="#32C924"/>
<path d="M59.6648 80.5071C85.1328 71.2609 90.838 49.8223 99.9771 48.8338C165.346 48.8338 664.172 48.1748 680 48.1748C702.428 64.4323 727.215 76.4952 753.327 83.8607C753.618 83.9366 753.921 83.9404 754.213 83.8719C754.505 83.8033 754.779 83.664 755.015 83.4646C755.25 83.2652 755.441 83.0108 755.573 82.7202C755.705 82.4297 755.775 82.1104 755.778 81.7865L755.778 76.5335C756.422 73.277 769.334 73.781 772.804 76.2427C783.106 86.807 783.106 430.543 772.804 441.087C769.334 443.549 756.422 444.053 755.778 440.797L755.778 435.563C755.778 435.238 755.71 434.916 755.579 434.623C755.448 434.33 755.257 434.073 755.021 433.872C754.786 433.67 754.511 433.529 754.217 433.46C753.924 433.39 753.619 433.393 753.327 433.47C727.212 440.836 702.425 452.906 680 469.175C664.172 469.175 165.346 468.516 99.9771 468.516C90.838 467.527 85.1327 446.069 59.6648 436.842C34.1968 427.616 34.1074 89.7338 59.6648 80.5071Z" fill="white" stroke="#2288FF" stroke-width="5" stroke-miterlimit="10"/>
<path d="M568.53 98L504.53 50L443.53 50L511.53 98L434.53 169L488.53 169L568.53 98Z" fill="#2288FF"/>
<path d="M468.53 98L404.53 50L343.53 50L411.53 98L334.53 169L388.53 169L468.53 98Z" fill="#2288FF"/>
<path d="M368.53 96.1748L304.53 48.1748L243.53 48.1748L311.53 96.1748L234.53 167.175L288.53 167.175L368.53 96.1748Z" fill="#2288FF"/>
<path d="M268.53 98.1748L204.53 50.1748L143.53 50.1748L211.53 98.1748L134.53 169.175L188.53 169.175L268.53 98.1748Z" fill="#2288FF"/>
</svg>
