<svg id="Layer_1" data-name="Layer 1" xmlns="http://www.w3.org/2000/svg" viewBox="0 0 463.08 463.08"><defs><style>.cls-1,.cls-2{fill:none;stroke:#fff;stroke-width:5px;}.cls-1{stroke-miterlimit:10;}</style></defs><path class="cls-1" d="M297.52,322c37.75-21.79,60.25-2.58,67.78,10.47,6.7,11.6,7.8,20.78,24.58,43.78,34.75,47.57-8.06,72.09-16.5,77.14s-49.32,28.48-75.07-24.28c-12.48-25.58-18.92-31.58-25.62-43.17C265.15,372.89,259.29,344.08,297.52,322Z" transform="translate(-62.96 -84.96)"/><path class="cls-1" d="M306.54,337.63A28.9,28.9,0,1,0,346,348.24,28.87,28.87,0,0,0,306.54,337.63Z" transform="translate(-62.96 -84.96)"/><path class="cls-1" d="M349.77,412.5c-15.29,8.82-24.52,21.45-20.62,28.2s19.44,5.07,34.73-3.76,24.51-21.44,20.61-28.19S365.05,403.68,349.77,412.5Z" transform="translate(-62.96 -84.96)"/><circle class="cls-2" cx="231.54" cy="231.54" r="229"/><path class="cls-1" d="M252.27,239.23c113.33-65.43,141,69.94,150.84,93.26,39.06,103.23-8.86,127.94-24,135.79s-66.51,34.4-127.68-50.7C236.72,397,137.51,308.32,252.27,239.23Z" transform="translate(-62.96 -84.96)"/><circle class="cls-2" cx="231.39" cy="232.08" r="210.21"/></svg>