<svg width="1440" height="2004" viewBox="0 0 1440 2004" fill="none" xmlns="http://www.w3.org/2000/svg">
<path d="M858.35 1690.45H837.05L803.75 1789H783.5L821.6 1680.85L788.15 1582.9H808.7L837.05 1670.2H858.35V1582.9H879.65V1670.2H900.95L929.75 1582.9H949.85L916.4 1680.85L954.5 1789H933.65L900.8 1690.45H879.65V1789H858.35V1690.45Z" fill="#32C924" fill-opacity="0.5"/>
<path d="M668.35 1690.45H647.05L613.75 1789H593.5L631.6 1680.85L598.15 1582.9H618.7L647.05 1670.2H668.35V1582.9H689.65V1670.2H710.95L739.75 1582.9H759.85L726.4 1680.85L764.5 1789H743.65L710.8 1690.45H689.65V1789H668.35V1690.45Z" fill="#32C924" fill-opacity="0.5"/>
<path d="M476.35 1690.45H455.05L421.75 1789H401.5L439.6 1680.85L406.15 1582.9H426.7L455.05 1670.2H476.35V1582.9H497.65V1670.2H518.95L547.75 1582.9H567.85L534.4 1680.85L572.5 1789H551.65L518.8 1690.45H497.65V1789H476.35V1690.45Z" fill="#32C924" fill-opacity="0.5"/>
<path d="M857.45 1691.05H838.85L807.8 1789H782.6L819.35 1679.65L786.95 1582.45H812L839.15 1669.75H857.45V1582.45H880.55V1669.75H898.85L926.3 1582.45H951.05L918.65 1679.65L955.4 1789H929.6L898.85 1691.05H880.55V1789H857.45V1691.05Z" fill="#32C924" fill-opacity="0.2"/>
<path d="M667.45 1691.05H648.85L617.8 1789H592.6L629.35 1679.65L596.95 1582.45H622L649.15 1669.75H667.45V1582.45H690.55V1669.75H708.85L736.3 1582.45H761.05L728.65 1679.65L765.4 1789H739.6L708.85 1691.05H690.55V1789H667.45V1691.05Z" fill="#32C924" fill-opacity="0.2"/>
<path d="M475.45 1691.05H456.85L425.8 1789H400.6L437.35 1679.65L404.95 1582.45H430L457.15 1669.75H475.45V1582.45H498.55V1669.75H516.85L544.3 1582.45H569.05L536.65 1679.65L573.4 1789H547.6L516.85 1691.05H498.55V1789H475.45V1691.05Z" fill="#32C924" fill-opacity="0.2"/>
<path d="M856.85 1691.35H839.9L810.05 1789H782.15L818.15 1678.9L786.2 1582.3H813.8L840.2 1669.6H856.85V1582.3H881.15V1669.6H897.8L924.5 1582.3H951.8L919.85 1678.9L955.85 1789H927.35L897.8 1691.35H881.15V1789H856.85V1691.35Z" fill="#32C924" fill-opacity="0.2"/>
<path d="M666.85 1691.35H649.9L620.05 1789H592.15L628.15 1678.9L596.2 1582.3H623.8L650.2 1669.6H666.85V1582.3H691.15V1669.6H707.8L734.5 1582.3H761.8L729.85 1678.9L765.85 1789H737.35L707.8 1691.35H691.15V1789H666.85V1691.35Z" fill="#32C924" fill-opacity="0.2"/>
<path d="M474.85 1691.35H457.9L428.05 1789H400.15L436.15 1678.9L404.2 1582.3H431.8L458.2 1669.6H474.85V1582.3H499.15V1669.6H515.8L542.5 1582.3H569.8L537.85 1678.9L573.85 1789H545.35L515.8 1691.35H499.15V1789H474.85V1691.35Z" fill="#32C924" fill-opacity="0.2"/>
<path d="M856.1 1691.8H841.25L813.05 1789H781.55L816.5 1678L785.3 1582H816.2L841.7 1669.3H856.1V1582H881.9V1669.3H896.3L921.95 1582H952.7L921.5 1678L956.45 1789H924.35L896.3 1691.8H881.9V1789H856.1V1691.8Z" fill="#32C924" fill-opacity="0.2"/>
<path d="M666.1 1691.8H651.25L623.05 1789H591.55L626.5 1678L595.3 1582H626.2L651.7 1669.3H666.1V1582H691.9V1669.3H706.3L731.95 1582H762.7L731.5 1678L766.45 1789H734.35L706.3 1691.8H691.9V1789H666.1V1691.8Z" fill="#32C924" fill-opacity="0.2"/>
<path d="M474.1 1691.8H459.25L431.05 1789H399.55L434.5 1678L403.3 1582H434.2L459.7 1669.3H474.1V1582H499.9V1669.3H514.3L539.95 1582H570.7L539.5 1678L574.45 1789H542.35L514.3 1691.8H499.9V1789H474.1V1691.8Z" fill="#32C924" fill-opacity="0.2"/>
<path d="M855.35 1692.25H842.9L816.8 1789H780.8L814.55 1676.95L784.25 1581.55H819.2L843.65 1668.85H855.35V1581.55H882.65V1668.85H894.35L918.95 1581.55H953.75L923.45 1676.95L957.2 1789H920.6L894.5 1692.25H882.65V1789H855.35V1692.25Z" fill="#32C924" fill-opacity="0.2"/>
<path d="M665.35 1692.25H652.9L626.8 1789H590.8L624.55 1676.95L594.25 1581.55H629.2L653.65 1668.85H665.35V1581.55H692.65V1668.85H704.35L728.95 1581.55H763.75L733.45 1676.95L767.2 1789H730.6L704.5 1692.25H692.65V1789H665.35V1692.25Z" fill="#32C924" fill-opacity="0.2"/>
<path d="M473.35 1692.25H460.9L434.8 1789H398.8L432.55 1676.95L402.25 1581.55H437.2L461.65 1668.85H473.35V1581.55H500.65V1668.85H512.35L536.95 1581.55H571.75L541.45 1676.95L575.2 1789H538.6L512.5 1692.25H500.65V1789H473.35V1692.25Z" fill="#32C924" fill-opacity="0.2"/>
<path d="M854.15 1693H845.15L821.6 1789H779.75L811.85 1675.45L782.75 1581.1H823.1L846.05 1668.4H854.15V1581.1H883.85V1668.4H891.95L914.9 1581.1H955.25L926.15 1675.45L958.25 1789H915.8L892.25 1693H883.85V1789H854.15V1693Z" fill="#62CB59" fill-opacity="0.2"/>
<path d="M664.15 1693H655.15L631.6 1789H589.75L621.85 1675.45L592.75 1581.1H633.1L656.05 1668.4H664.15V1581.1H693.85V1668.4H701.95L724.9 1581.1H765.25L736.15 1675.45L768.25 1789H725.8L702.25 1693H693.85V1789H664.15V1693Z" fill="#62CB59" fill-opacity="0.2"/>
<path d="M472.15 1693H463.15L439.6 1789H397.75L429.85 1675.45L400.75 1581.1H441.1L464.05 1668.4H472.15V1581.1H501.85V1668.4H509.95L532.9 1581.1H573.25L544.15 1675.45L576.25 1789H533.8L510.25 1693H501.85V1789H472.15V1693Z" fill="#62CB59" fill-opacity="0.2"/>
<path d="M1539.01 2003.44L1387.97 820.365L1717.37 718.785V756.267H1682.02V787.474H1717.37V802.012H1682.02V828.772H1717.37V842.248H1682.02V871.946H1772V850.063L1736.66 848.502V828.772H1772V798.707H1730.23L1733.44 787.474H1772V764.102L1730.23 756.267L1744.69 670.336H1349.41V504.678L1537.41 431.224L1328.52 423.4L1285.14 3L1241.75 423.4L1032.86 431.224L1220.87 504.678V670.336H825.585L840.052 756.267L798.272 764.102V787.474H836.838L840.052 798.707H798.272V828.772H833.624V848.502L798.272 850.063V871.946H888.25V842.248H852.908V828.772H888.25V802.012H852.908V787.474H888.25V756.267H852.908V718.785L1182.3 820.365L1031.26 2003.44" stroke="#32C924" stroke-width="5" stroke-linejoin="round"/>
<path d="M1118.68 1994.06L1126.49 1944.05L1285.14 1803.4L1429.71 1934.68L1437.52 1994.06" stroke="#32C924" stroke-width="5" stroke-linejoin="round"/>
<path d="M1143.69 1675.24L1134.31 1881.54L1251.53 1769.01L1143.69 1675.24Z" stroke="#32C924" stroke-width="5" stroke-linejoin="round"/>
<path d="M1164.01 1623.67L1285.14 1512.71L1403.14 1623.67L1285.14 1736.19L1164.01 1623.67Z" stroke="#32C924" stroke-width="5" stroke-linejoin="round"/>
<path d="M1314.05 1769.01L1409.39 1675.24L1423.46 1870.6L1314.05 1769.01Z" stroke="#32C924" stroke-width="5" stroke-linejoin="round"/>
<path d="M1174.95 1414.25L1164.01 1573.65L1251.53 1493.96L1174.95 1414.25Z" stroke="#32C924" stroke-width="5" stroke-linejoin="round"/>
<path d="M1314.05 1493.96L1393.76 1414.25L1409.39 1583.04L1314.05 1493.96Z" stroke="#32C924" stroke-width="5" stroke-linejoin="round"/>
<path d="M1278.11 1293.91L1176.51 1367.36L1278.11 1470.51L1381.26 1382.2L1278.11 1293.91Z" stroke="#32C924" stroke-width="5" stroke-linejoin="round"/>
<path d="M1192.92 1214.2L1259.35 1265.78L1176.51 1334.54L1192.92 1214.2Z" stroke="#32C924" stroke-width="5" stroke-linejoin="round"/>
<path d="M1298.42 1265.78L1381.26 1201.7V1334.54L1298.42 1265.78Z" stroke="#32C924" stroke-width="5" stroke-linejoin="round"/>
<path d="M1280.53 1083.44L1193.35 1171.31L1280.53 1254.66L1367.37 1179.99L1280.53 1083.44Z" stroke="#32C924" stroke-width="5" stroke-linejoin="round"/>
<path d="M1197.18 1008.77L1193.35 1127.9L1265.94 1066.77L1197.18 1008.77Z" stroke="#32C924" stroke-width="5" stroke-linejoin="round"/>
<path d="M1292.34 1068.34L1367.37 1007.39L1369.8 1140.4L1292.34 1068.34Z" stroke="#32C924" stroke-width="5" stroke-linejoin="round"/>
<path d="M1280.36 896.941L1204.47 979.607L1278.45 1049.76L1360.07 976.475L1280.36 896.941Z" stroke="#32C924" stroke-width="5" stroke-linejoin="round"/>
<path d="M1216.97 841.728L1267.34 885.137L1206.9 940.36L1216.97 841.728Z" stroke="#32C924" stroke-width="5" stroke-linejoin="round"/>
<path d="M1353.47 841.728L1357.25 939.319L1293.34 885.484L1353.47 841.728Z" stroke="#32C924" stroke-width="5" stroke-linejoin="round"/>
<path d="M1232.6 817.07L1340.62 822.273L1282.27 876.802L1232.6 817.07Z" stroke="#32C924" stroke-width="5" stroke-linejoin="round"/>
<path d="M1218.71 704.89L1222.53 798.656L1270.12 751.778L1218.71 704.89Z" stroke="#32C924" stroke-width="5" stroke-linejoin="round"/>
<path d="M1194.39 702.462L1182.24 793.106L1132.23 780.598L1194.39 702.462Z" stroke="#32C924" stroke-width="5" stroke-linejoin="round"/>
<path d="M1127.36 694.821L1173.56 697.249L1119.03 773.304L1072.84 768.795L1127.36 694.821Z" stroke="#32C924" stroke-width="5" stroke-linejoin="round"/>
<path d="M1108.96 694.821L1060.68 760.46L1016.92 754.206L1068.32 694.821H1108.96Z" stroke="#32C924" stroke-width="5" stroke-linejoin="round"/>
<path d="M1016.92 694.821L970.371 741.005L1005.1 747.779L1055.47 694.821H1016.92Z" stroke="#32C924" stroke-width="5" stroke-linejoin="round"/>
<path d="M897.432 697.596L992.256 696.208L956.129 734.067L897.432 697.596Z" stroke="#32C924" stroke-width="5" stroke-linejoin="round"/>
<path d="M1377.06 702.462L1389.22 793.106L1439.24 780.598L1377.06 702.462Z" stroke="#32C924" stroke-width="5" stroke-linejoin="round"/>
<path d="M1444.1 694.821L1397.91 697.249L1452.44 773.304L1498.63 768.795L1444.1 694.821Z" stroke="#32C924" stroke-width="5" stroke-linejoin="round"/>
<path d="M1232.6 697.596L1280.19 739.964L1336.46 697.596H1232.6Z" stroke="#32C924" stroke-width="5" stroke-linejoin="round"/>
<path d="M1240.59 800.4L1284.53 756.287L1334.72 800.4H1240.59Z" stroke="#32C924" stroke-width="5" stroke-linejoin="round"/>
<path d="M1295.47 746.218L1347.22 704.89L1343.75 793.106L1295.47 746.218Z" stroke="#32C924" stroke-width="5" stroke-linejoin="round"/>
<path d="M1130.15 442.681L1218.71 484.356V440.08L1130.15 442.681Z" stroke="#32C924" stroke-width="5" stroke-linejoin="round"/>
<path d="M1353.65 440.08L1351.04 481.755L1457.85 445.242L1353.65 440.08Z" stroke="#32C924" stroke-width="5" stroke-linejoin="round"/>
<path d="M1237.99 566.665L1281.23 522.389L1328.12 569.266L1283.05 615.114L1237.99 566.665Z" stroke="#32C924" stroke-width="5" stroke-linejoin="round"/>
<path d="M1232.6 594.802L1231.76 662.542L1270.14 628.682L1232.6 594.802Z" stroke="#32C924" stroke-width="5" stroke-linejoin="round"/>
<path d="M1334.72 594.802L1295.47 628.662L1330.72 662.522L1334.72 594.802Z" stroke="#32C924" stroke-width="5" stroke-linejoin="round"/>
<path d="M1247.89 665.644L1283.05 632.304L1317.7 665.644H1247.89Z" stroke="#32C924" stroke-width="5" stroke-linejoin="round"/>
<path d="M1262.48 403.088L1285.14 248.366L1304.15 403.088H1262.48Z" stroke="#32C924" stroke-width="5" stroke-linejoin="round"/>
<path d="M1250.93 470.808L1285.14 432.265L1311.97 470.808L1283.05 500.505L1250.93 470.808Z" stroke="#32C924" stroke-width="5" stroke-linejoin="round"/>
<path d="M1243.72 494.252L1270.12 514.054L1237.99 541.66L1243.72 494.252Z" stroke="#32C924" stroke-width="5" stroke-linejoin="round"/>
<path d="M1334.72 541.66L1328.12 494.252L1304.15 515.614L1334.72 541.66Z" stroke="#32C924" stroke-width="5" stroke-linejoin="round"/>
<path d="M792.199 896.98L-38.5913 1334.52M879.134 911.545L-5.34748 1809.85" stroke="#32C924" stroke-width="5"/>
</svg>
