<svg width="1243" height="78" viewBox="0 0 1243 78" fill="none" xmlns="http://www.w3.org/2000/svg">
<rect x="-45.5" y="2.5" width="1268" height="73" stroke="#FFC42D" stroke-width="5"/>
<rect x="6" y="15" width="34" height="49" fill="#FFC42D"/>
<rect x="49" y="15" width="34" height="49" fill="#FFC42D"/>
<rect x="92" y="15" width="34" height="49" fill="#FFC42D"/>
<rect x="135" y="15" width="34" height="49" fill="#FFC42D"/>
<rect x="178" y="15" width="34" height="49" fill="#FFC42D"/>
<rect x="221" y="15" width="34" height="49" fill="#FFC42D"/>
<rect x="264" y="15" width="34" height="49" fill="#FFC42D"/>
<rect x="307" y="15" width="34" height="49" fill="#FFC42D"/>
<rect x="350" y="15" width="34" height="49" fill="#FFC42D"/>
<rect x="393" y="15" width="34" height="49" fill="#FFC42D"/>
<rect x="436" y="15" width="34" height="49" fill="#FFC42D"/>
<rect x="479" y="15" width="34" height="49" fill="#FFC42D"/>
<rect x="522" y="15" width="34" height="49" fill="#FFC42D"/>
<rect x="1223.5" y="26.5" width="17" height="26" stroke="#FFC42D" stroke-width="5" stroke-linejoin="round"/>
</svg>
