<svg id="Layer_1" data-name="Layer 1" xmlns="http://www.w3.org/2000/svg" viewBox="0 0 512.06 702.02"><defs><style>.cls-1{fill:none;stroke:#28f;stroke-linecap:round;stroke-linejoin:round;stroke-width:5px;}</style></defs><path class="cls-1" d="M244.36,329,157,308.61l37.28-87.83-9.7-25.53s62.29-.51,93.95,47.49l-10.21,12.77L275,336.19l-7.66-2.56,3.57,28.09" transform="translate(-2.88 -21.69)"/><polyline class="cls-1" points="271.61 371.18 278.25 413.05 154.16 402.33 170.78 290.81"/><path class="cls-1" d="M233.74,326.55s28,74.49,73.94,9.13c18.38-28.6,0-68.43,0-68.43" transform="translate(-2.88 -21.69)"/><path class="cls-1" d="M192.23,316.84s9.75,81.65,88.9,74,92.42-119,19.91-231.32" transform="translate(-2.88 -21.69)"/><path class="cls-1" d="M284.7,159.51s11.24,6.64,17.87,29.61" transform="translate(-2.88 -21.69)"/><path class="cls-1" d="M274.8,164.1s13,14.3,18.84,31.15" transform="translate(-2.88 -21.69)"/><path class="cls-1" d="M278.57,199.85s2.05,16.85,18.9,23.49" transform="translate(-2.88 -21.69)"/><path class="cls-1" d="M258.5,220.82c8-57.67,5.27-126.67-59.07-121.57-35.1,2.79-11.24,57.19-11.24,57.19S168.79,159,177,174.32s22.47,0,22.47,0l9.12,23.82" transform="translate(-2.88 -21.69)"/><path class="cls-1" d="M233.74,168.7s13.6,5.88,36.69,3.06" transform="translate(-2.88 -21.69)"/><path class="cls-1" d="M237.72,126.83s5.11,7.66,6.64,20.42" transform="translate(-2.88 -21.69)"/><path class="cls-1" d="M258.5,118.66s9.35,10.21,9.35,21.44" transform="translate(-2.88 -21.69)"/><path class="cls-1" d="M385.3,532.78l-21.45,37.28h148.6s-27.58-21.45-91.92-14.81" transform="translate(-2.88 -21.69)"/><line class="cls-1" x1="385.99" y1="520.8" x2="416.12" y2="522.84"/><line class="cls-1" x1="390.59" y1="511.1" x2="420.2" y2="513.14"/><path class="cls-1" d="M57,673.21,5.38,717.63l145.53,3.58s-12.76-26-75.57-26" transform="translate(-2.88 -21.69)"/><line class="cls-1" x1="59.18" y1="660.2" x2="80.63" y2="660.2"/><path class="cls-1" d="M243.85,528.7S182.57,615.85,121.3,676.61l-87.83-6s91.91-85.28,136.85-169.54" transform="translate(-2.88 -21.69)"/><path class="cls-1" d="M277.08,409.2S392.7,339.76,418,350.49s25.53,30.12,50,147.06" transform="translate(-2.88 -21.69)"/><path class="cls-1" d="M171,425.22s-29.74,67.22,43.79,86.63,174.13-88.4,174.13-88.4l-20.42,98.61,73,4.6" transform="translate(-2.88 -21.69)"/><line class="cls-1" x1="428.65" y1="20.49" x2="469.22" y2="2.5"/><line class="cls-1" x1="345.75" y1="57.23" x2="397.27" y2="34.39"/><line class="cls-1" x1="275.69" y1="88.29" x2="312.97" y2="71.76"/></svg>