<?xml version="1.0" encoding="utf-8"?>
<!-- Generator: Adobe Illustrator 26.0.0, SVG Export Plug-In . SVG Version: 6.00 Build 0)  -->
<svg version="1.1" id="Layer_1" xmlns="http://www.w3.org/2000/svg" xmlns:xlink="http://www.w3.org/1999/xlink" x="0px" y="0px"
	 viewBox="0 0 216 176" style="enable-background:new 0 0 216 176;" xml:space="preserve">
<style type="text/css">
	.st0{fill:none;stroke:#2288FF;stroke-width:5;stroke-linecap:round;stroke-linejoin:round;stroke-miterlimit:10;}
</style>
<image style="display:none;overflow:visible;opacity:0.43;" width="216" height="176" xlink:href="man3.png" >
</image>
<path class="st0" d="M77.2,60.4c0,0,16.5,18.1,32.7-3.2"/>
<line class="st0" x1="87" y1="43.2" x2="87.7" y2="57.5"/>
<line class="st0" x1="101" y1="41.3" x2="100.2" y2="56.7"/>
<path class="st0" d="M71.1,92.8c0,0-3.3-29.5-2.7-30.9c0.5-1.4-11.1,7.5-14.8-2.1C50,50.2,64.3,45,68.1,53.4c2.6-60,51-42,49.7-6.4
	c0,0,10-6.4,11.9,3.6c1.9,9.8-11,7.9-11,7.9l3.7,35.8"/>
<path class="st0" d="M132.2,92.4c0,0,11.9-9.8,11.5,4.6c-0.4,16.5-5.2,23.8-5.2,23.8"/>
<path class="st0" d="M145.8,92.5c0,0,8.1-6.6,8.7,4.4s-6.8,28.2-6.8,28.2"/>
<path class="st0" d="M156.7,96.7c0,0,3.9-0.7,4.5,3c0.6,3.8-6.2,27.7-6.2,27.7"/>
<path class="st0" d="M162.5,102.3c0,0,4.8,0.9,4.9,5.2c0.1,4.2-4.8,22.2-4.8,22.2"/>
<path class="st0" d="M42.6,97.6c0,0-9.7-3.2-5,7.6c5,11.5,16.8,16.4,16.8,16.4"/>
<path class="st0" d="M34,99.2c0,0-6.1-1.2-3.4,8.5s17.1,19.2,17.1,19.2"/>
<path class="st0" d="M26.9,103.4c0,0-2.9,0.8-2.6,6.6c0.3,5.8,15.4,19.9,15.4,19.9"/>
<path class="st0" d="M22.8,110.5c0,0-4.2,1.3-3.6,5.8c0.9,6.2,14,17.6,14,17.6"/>
</svg>
