<svg id="Layer_1" data-name="Layer 1" xmlns="http://www.w3.org/2000/svg" viewBox="0 0 593 602"><defs><style>.cls-1{fill:none;stroke:#ffc42d;stroke-linecap:round;stroke-linejoin:round;stroke-width:5px;}</style></defs><polyline class="cls-1" points="322.97 393.04 386.14 356.57 386.14 248.57 292.61 194.57 231.66 229.76"/><polyline class="cls-1" points="199.08 286.49 199.08 356.57 261.03 392.34"/><polyline class="cls-1" points="517.17 352.3 553.69 302.04 517.07 251.64"/><polyline class="cls-1" points="458.32 224.15 386.14 247.6 386.14 356.48 460.07 380.5"/><line class="cls-1" x1="503.64" y1="341.72" x2="532.91" y2="302.32"/><line class="cls-1" x1="407.3" y1="257.77" x2="407.3" y2="344.23"/><line class="cls-1" x1="503.64" y1="173.89" x2="524.06" y2="109.89"/><line class="cls-1" x1="302.02" y1="200" x2="302.02" y2="123.17"/><line class="cls-1" x1="281.87" y1="200.77" x2="281.87" y2="123.17"/><line class="cls-1" x1="102.62" y1="194.57" x2="164.91" y2="230.4"/><line class="cls-1" x1="291.89" y1="452.36" x2="291.89" y2="523.85"/><line class="cls-1" x1="209.06" y1="362.33" x2="141.43" y2="401.98"/><line class="cls-1" x1="131.21" y1="382.15" x2="199.08" y2="341.72"/></svg>