<svg id="Layer_1" data-name="Layer 1" xmlns="http://www.w3.org/2000/svg" viewBox="0 0 476.43 514.83"><defs><style>.cls-1,.cls-5,.cls-6,.cls-9{fill:none;}.cls-1,.cls-3,.cls-5{stroke:#ffc42d;}.cls-1,.cls-3,.cls-6,.cls-7{stroke-linejoin:round;}.cls-1,.cls-3,.cls-5,.cls-6,.cls-7,.cls-9{stroke-width:5px;}.cls-2,.cls-3,.cls-7{fill:#fff;}.cls-4{fill:#ffc42d;}.cls-6,.cls-7,.cls-9{stroke:#32c924;}.cls-8{fill:#32c924;}</style></defs><path class="cls-1" d="M103.48,234.08c42,0,76-16.6,76-37.09s-34-37.09-76-37.09-76,16.61-76,37.09S61.5,234.08,103.48,234.08Z"/><path class="cls-1" d="M103.85,219.39c28,0,50.68-10.35,50.68-23.13s-22.69-23.14-50.68-23.14-50.67,10.36-50.67,23.14S75.86,219.39,103.85,219.39Z"/><path class="cls-1" d="M103.48,204.7c9.13,0,16.53-3.61,16.53-8.07s-7.4-8.08-16.53-8.08S87,192.16,87,196.63,94.36,204.7,103.48,204.7Z"/><rect class="cls-2" x="88.43" y="187.08" width="30.11" height="9.55"/><path class="cls-3" d="M103.48,194.42c9.13,0,16.53-3.29,16.53-7.34s-7.4-7.35-16.53-7.35S87,183,87,187.08,94.36,194.42,103.48,194.42Z"/><path class="cls-1" d="M104.22,469.09c42,0,76-19.07,76-42.59s-34-42.6-76-42.6-76,19.07-76,42.6S62.24,469.09,104.22,469.09Z"/><rect class="cls-2" x="29.68" y="378.03" width="150.56" height="49.21"/><path class="cls-1" d="M180.23,428l-.73-231.34"/><path class="cls-1" d="M28.21,427.23l-.37-226.69"/><path class="cls-4" d="M60.89,228.45,41.43,217.19V449.83l23.5,14.61,33.78,4.65V235.43Z"/><path class="cls-5" d="M87,187.08v9.55M120,187.08v9.55"/><path class="cls-6" d="M336.61,216.33c51.07,0,92.46-20.19,92.46-45.11s-41.39-45.11-92.46-45.11-92.45,20.2-92.45,45.11S285.55,216.33,336.61,216.33Z"/><path class="cls-6" d="M337.38,198.61c34,0,61.63-12.6,61.63-28.14s-27.59-28.14-61.63-28.14-61.64,12.6-61.64,28.14S303.33,198.61,337.38,198.61Z"/><path class="cls-6" d="M337.7,180.34c11.1,0,20.1-4.4,20.1-9.83s-9-9.82-20.1-9.82-20.1,4.4-20.1,9.82S326.6,180.34,337.7,180.34Z"/><rect class="cls-2" x="319.07" y="158.48" width="37.46" height="11.75"/><path class="cls-7" d="M337.7,168.27c11.1,0,20.1-4,20.1-8.93s-9-8.93-20.1-8.93-20.1,4-20.1,8.93S326.6,168.27,337.7,168.27Z"/><path class="cls-6" d="M337.51,502.19c51.06,0,92.45-23.2,92.45-51.81s-41.39-51.81-92.45-51.81-92.46,23.19-92.46,51.81S286.44,502.19,337.51,502.19Z"/><rect class="cls-2" x="246.84" y="391.42" width="183.13" height="59.85"/><path class="cls-6" d="M430,452.17l-.89-281.39"/><path class="cls-6" d="M245.05,451.27l-.45-275.73"/><path class="cls-8" d="M284.8,209.48l-23.67-13.69v283l28.59,17.77,41.09,5.66V218Z"/><path class="cls-9" d="M317.6,159.16v11.62m40.2-11.62v11.62"/></svg>