<svg id="Layer_1" data-name="Layer 1" xmlns="http://www.w3.org/2000/svg" viewBox="0 0 1466.04 716.37"><defs><style>.cls-1,.cls-2,.cls-3,.cls-4{fill:none;}.cls-1,.cls-5{stroke:#32c924;}.cls-1,.cls-2,.cls-3,.cls-4,.cls-5,.cls-6,.cls-7,.cls-8{stroke-linejoin:bevel;stroke-width:5px;}.cls-2,.cls-6{stroke:#28f;}.cls-3,.cls-8{stroke:#ffc42d;}.cls-4,.cls-7{stroke:#ff8eb7;}.cls-5,.cls-6,.cls-7,.cls-8{fill:#fff;}</style></defs><path class="cls-1" d="M782.26,671.82C774,649.15,755,644.07,754.12,635.93c0-58.2-.58-502.32-.58-516.41a207.49,207.49,0,0,0,31.7-65.28,1.76,1.76,0,0,0,0-.79,1.83,1.83,0,0,0-.37-.72,1.71,1.71,0,0,0-.66-.49,2.14,2.14,0,0,0-.83-.19h-4.66c-2.9-.57-2.45-12.07-.26-15.16,9.38-9.17,314.72-9.17,324.09,0,2.18,3.09,2.63,14.59-.26,15.16h-4.65a2,2,0,0,0-1.5.68,1.64,1.64,0,0,0-.36,1.51,206.91,206.91,0,0,0,31.72,65.28c0,14.09-.59,458.21-.59,516.41-.88,8.14-19.94,13.22-28.13,35.89S790.45,694.57,782.26,671.82Z"/><path class="cls-2" d="M367.33,671.82c-8.23-22.67-27.33-27.75-28.21-35.89,0-58.2-.58-502.32-.58-516.41a207.06,207.06,0,0,0,31.78-65.28,1.63,1.63,0,0,0,0-.79,1.69,1.69,0,0,0-.36-.72,1.87,1.87,0,0,0-.66-.49,2.19,2.19,0,0,0-.84-.19h-4.68c-2.9-.57-2.45-12.07-.25-15.16,9.41-9.17,315.56-9.17,325,0,2.2,3.09,2.65,14.59-.25,15.16h-4.67a2,2,0,0,0-1.5.68,1.64,1.64,0,0,0-.36,1.51,206.69,206.69,0,0,0,31.8,65.28c0,14.09-.59,458.21-.59,516.41-.88,8.14-20,13.22-28.21,35.89S375.55,694.57,367.33,671.82Z"/><path class="cls-3" d="M1196.34,671.82c-8.24-22.67-27.33-27.75-28.21-35.89,0-58.2-.59-502.32-.59-516.41a207.06,207.06,0,0,0,31.78-65.28,1.51,1.51,0,0,0,0-.79,1.69,1.69,0,0,0-.36-.72,1.78,1.78,0,0,0-.66-.49,2.14,2.14,0,0,0-.83-.19h-4.68c-2.9-.57-2.45-12.07-.26-15.16,9.41-9.17,315.57-9.17,325,0,2.19,3.09,2.64,14.59-.26,15.16h-4.66a2,2,0,0,0-.84.18,2,2,0,0,0-.67.5,1.64,1.64,0,0,0-.36,1.51,206.69,206.69,0,0,0,31.8,65.28c0,14.09-.58,458.21-.58,516.41-.88,8.14-20,13.22-28.21,35.89S1204.56,694.57,1196.34,671.82Z"/><path class="cls-4" d="M-47.67,673.82C-55.9,651.15-75,646.07-75.88,637.93c0-58.2-.58-502.32-.58-516.41A207.06,207.06,0,0,0-44.68,56.24a1.63,1.63,0,0,0,0-.79,1.69,1.69,0,0,0-.36-.72,1.87,1.87,0,0,0-.66-.49,2.19,2.19,0,0,0-.84-.19h-4.68c-2.9-.57-2.45-12.07-.25-15.16,9.41-9.17,315.56-9.17,325,0,2.2,3.09,2.65,14.59-.25,15.16h-4.67a2,2,0,0,0-1.5.68,1.64,1.64,0,0,0-.36,1.51,206.69,206.69,0,0,0,31.8,65.28c0,14.09-.59,458.21-.59,516.41-.88,8.14-20,13.22-28.21,35.89S-39.45,696.57-47.67,673.82Z"/><path class="cls-5" d="M1101.88,35.27s0,0,0,0S1101.88,35.27,1101.88,35.27Zm-2,.46c.26.1.49.19.69.29l-.69.28a54.53,54.53,0,0,1-9.12,2.32c-8.17,1.53-20.07,2.92-34.88,4.1-29.6,2.34-70.53,3.8-115.77,3.8S854,45.06,824.37,42.72c-14.81-1.18-26.72-2.57-34.88-4.1a54.53,54.53,0,0,1-9.12-2.32l-.69-.28c.2-.1.43-.19.69-.29a55.54,55.54,0,0,1,9.12-2.32c8.16-1.53,20.07-2.92,34.88-4.09,29.59-2.35,70.52-3.8,115.77-3.8s86.17,1.45,115.77,3.8c14.81,1.17,26.71,2.56,34.88,4.09A55.54,55.54,0,0,1,1099.91,35.73ZM778.4,35.27l0,0Zm0,1.49,0,0Zm323.46,0s0,0,0,0S1101.87,36.76,1101.86,36.74Z"/><path class="cls-6" d="M687.27,35.27l0,0Zm-2,.46c.26.1.49.19.7.29l-.7.28a54.62,54.62,0,0,1-9.11,2.32c-8.17,1.53-20.08,2.92-34.89,4.1-29.59,2.34-70.52,3.8-115.76,3.8s-86.18-1.46-115.77-3.8c-14.81-1.18-26.72-2.57-34.89-4.1a54.62,54.62,0,0,1-9.11-2.32l-.69-.28c.2-.1.43-.19.69-.29a55.64,55.64,0,0,1,9.11-2.32c8.17-1.53,20.08-2.92,34.89-4.09,29.59-2.35,70.52-3.8,115.77-3.8S611.71,27,641.3,29.32c14.81,1.17,26.72,2.56,34.89,4.09A55.64,55.64,0,0,1,685.3,35.73Zm-321.5-.46,0,0Zm0,1.49,0,0Zm323.45,0,0,0Z"/><path class="cls-7" d="M272.27,37.27l0,0Zm-2,.46c.26.1.49.19.7.29l-.7.28a54.62,54.62,0,0,1-9.11,2.32c-8.17,1.53-20.08,2.92-34.89,4.1-29.59,2.34-70.52,3.8-115.76,3.8S24.36,47.06-5.23,44.72c-14.81-1.18-26.72-2.57-34.89-4.1a54.62,54.62,0,0,1-9.11-2.32l-.69-.28c.2-.1.43-.19.69-.29a55.64,55.64,0,0,1,9.11-2.32c8.17-1.53,20.08-2.92,34.89-4.09,29.59-2.35,70.52-3.8,115.77-3.8S196.71,29,226.3,31.32c14.81,1.17,26.72,2.56,34.89,4.09A55.64,55.64,0,0,1,270.3,37.73Zm-321.5-.46,0,0Zm0,1.49,0,0Zm323.45,0,0,0Z"/><path class="cls-8" d="M1516.28,35.27l0,0Zm-2,.46c.25.1.49.19.69.29l-.69.28a54.53,54.53,0,0,1-9.12,2.32c-8.17,1.53-20.07,2.92-34.88,4.1-29.6,2.34-70.53,3.8-115.77,3.8s-86.17-1.46-115.77-3.8c-14.81-1.18-26.71-2.57-34.88-4.1a54.53,54.53,0,0,1-9.12-2.32l-.69-.28c.2-.1.44-.19.69-.29a55.54,55.54,0,0,1,9.12-2.32c8.17-1.53,20.07-2.92,34.88-4.09,29.6-2.35,70.53-3.8,115.77-3.8s86.17,1.45,115.77,3.8c14.81,1.17,26.71,2.56,34.88,4.09A55.54,55.54,0,0,1,1514.31,35.73Zm-321.51-.46,0,0Zm0,1.49,0,0Zm323.46,0,0,0Z"/><path class="cls-6" d="M683.05,672.44v0Zm-.22-.17a1.11,1.11,0,0,1,.18.25,1.43,1.43,0,0,1-.18.24,7.05,7.05,0,0,1-1.77,1.31,40.94,40.94,0,0,1-8.76,3.24c-7.91,2.16-19.48,4.13-33.91,5.8-28.84,3.34-68.74,5.41-112.85,5.41s-84-2.07-112.85-5.41c-14.44-1.67-26-3.64-33.92-5.8a40.6,40.6,0,0,1-8.75-3.24,7,7,0,0,1-1.78-1.31,1.43,1.43,0,0,1-.18-.24,1.11,1.11,0,0,1,.18-.25A7,7,0,0,1,370,671a40.15,40.15,0,0,1,8.75-3.23c7.91-2.17,19.48-4.14,33.92-5.81,28.83-3.34,68.73-5.4,112.85-5.4s84,2.06,112.85,5.4c14.43,1.67,26,3.64,33.91,5.81a40.48,40.48,0,0,1,8.76,3.23A7.05,7.05,0,0,1,682.83,672.27Zm-314.8.17v0Zm0,.15h0Zm315,0h0Z"/><path class="cls-7" d="M268.05,674.44v0Zm-.22-.17a1.11,1.11,0,0,1,.18.25,1.43,1.43,0,0,1-.18.24,7.05,7.05,0,0,1-1.77,1.31,40.94,40.94,0,0,1-8.76,3.24c-7.91,2.16-19.48,4.13-33.91,5.8-28.84,3.34-68.74,5.41-112.85,5.41s-84-2.07-112.85-5.41c-14.44-1.67-26-3.64-33.92-5.8A40.6,40.6,0,0,1-45,676.07a7,7,0,0,1-1.78-1.31,1.43,1.43,0,0,1-.18-.24,1.11,1.11,0,0,1,.18-.25A7,7,0,0,1-45,673a40.15,40.15,0,0,1,8.75-3.23c7.91-2.17,19.48-4.14,33.92-5.81,28.83-3.34,68.73-5.4,112.85-5.4s84,2.06,112.85,5.4c14.43,1.67,26,3.64,33.91,5.81a40.48,40.48,0,0,1,8.76,3.23A7.05,7.05,0,0,1,267.83,674.27Zm-314.8.17v0Zm0,.15h0Zm315,0h0Z"/><path class="cls-5" d="M1098.65,672.44v0Zm-.21-.17a1.57,1.57,0,0,1,.18.25,2.39,2.39,0,0,1-.18.24,7.37,7.37,0,0,1-1.78,1.31,40.81,40.81,0,0,1-8.75,3.24c-7.92,2.16-19.49,4.13-33.92,5.8-28.83,3.34-68.73,5.41-112.85,5.41s-84-2.07-112.85-5.41c-14.44-1.67-26-3.64-33.92-5.8a40.6,40.6,0,0,1-8.75-3.24,7,7,0,0,1-1.78-1.31,1.43,1.43,0,0,1-.18-.24,1.11,1.11,0,0,1,.18-.25,7,7,0,0,1,1.78-1.31,40.15,40.15,0,0,1,8.75-3.23c7.91-2.17,19.48-4.14,33.92-5.81,28.83-3.34,68.73-5.4,112.85-5.4s84,2.06,112.85,5.4c14.43,1.67,26,3.64,33.92,5.81a40.36,40.36,0,0,1,8.75,3.23A7.37,7.37,0,0,1,1098.44,672.27Zm-314.81.17v0Zm0,.15h0Zm315,0h0Z"/><path class="cls-8" d="M1512.05,672.44v0Zm-.21-.17a1.57,1.57,0,0,1,.18.25,2.39,2.39,0,0,1-.18.24,7.37,7.37,0,0,1-1.78,1.31,40.81,40.81,0,0,1-8.75,3.24c-7.92,2.16-19.49,4.13-33.92,5.8-28.83,3.34-68.73,5.41-112.85,5.41s-84-2.07-112.85-5.41c-14.43-1.67-26-3.64-33.92-5.8a40.81,40.81,0,0,1-8.75-3.24,7.37,7.37,0,0,1-1.78-1.31,2.39,2.39,0,0,1-.18-.24,1.57,1.57,0,0,1,.18-.25A7.37,7.37,0,0,1,1199,671a40.36,40.36,0,0,1,8.75-3.23c7.92-2.17,19.49-4.14,33.92-5.81,28.83-3.34,68.73-5.4,112.85-5.4s84,2.06,112.85,5.4c14.43,1.67,26,3.64,33.92,5.81a40.36,40.36,0,0,1,8.75,3.23A7.37,7.37,0,0,1,1511.84,672.27Zm-314.81.17v0Zm0,.15h0Zm315,0h0Z"/></svg>