<?xml version="1.0" encoding="utf-8"?>
<!-- Generator: Adobe Illustrator 26.0.0, SVG Export Plug-In . SVG Version: 6.00 Build 0)  -->
<svg version="1.1" id="Layer_1" xmlns="http://www.w3.org/2000/svg" xmlns:xlink="http://www.w3.org/1999/xlink" x="0px" y="0px"
	 viewBox="0 0 888 881" style="enable-background:new 0 0 888 881;" xml:space="preserve">
<style type="text/css">
	.st0{fill:#FFFFFF;stroke:#2288FF;stroke-width:5;stroke-miterlimit:10;}
	.st1{fill:#FFFFFF;}
	.st2{fill:none;stroke:#2288FF;stroke-width:5;stroke-miterlimit:10;}
	.st3{fill:#2288FF;}
	.st4{fill:none;stroke:#2288FF;stroke-width:5;}
	.st5{fill:#E0E0E0;}
	.st6{fill:#FF8EB7;}
</style>
<path class="st0" d="M885,3.4H3v840h882V3.4z"/>
<path class="st1" d="M62,845.4v32.7h25.5v-32.7"/>
<path class="st2" d="M62,845.4v32.7h25.5v-32.7"/>
<path class="st1" d="M791.2,845.4v32.7h30.6v-32.7"/>
<path class="st2" d="M791.2,845.4v32.7h30.6v-32.7"/>
<path class="st2" d="M495.2,617.2H197v130.7h298.2V617.2z"/>
<path class="st2" d="M836,674.4h-97V747h97V674.4z"/>
<path class="st2" d="M816.2,687.4H758v47h58.2V687.4z"/>
<path class="st2" d="M824.8,108.8h-84.8v49h84.8V108.8z"/>
<path class="st3" d="M758,201.5c0.3,1.8,0,22.5,0,22.5l25.3,12l25.3-12.5v-22L758,201.5z"/>
<path class="st2" d="M809.7,434.4c11.9,0,21.5-9.6,21.5-21.5s-9.6-21.5-21.5-21.5c-11.9,0-21.5,9.6-21.5,21.5
	S797.9,434.4,809.7,434.4z"/>
<path class="st2" d="M744.5,434.6c11.9,0,21.6-9.7,21.6-21.6c0-11.9-9.7-21.6-21.6-21.6c-11.9,0-21.6,9.7-21.6,21.6
	C723,424.9,732.6,434.6,744.5,434.6z"/>
<path class="st2" d="M826,289.4h-74v80h74V289.4z"/>
<path class="st3" d="M777.4,300.8h-11.5v9.2h11.5V300.8z"/>
<path class="st3" d="M795.1,300.8h-11.5v9.2h11.5V300.8z"/>
<path class="st3" d="M812.9,300.8h-11.5v9.2h11.5V300.8z"/>
<path class="st3" d="M777.4,316.7h-11.5v9.2h11.5V316.7z"/>
<path class="st3" d="M795.1,316.7h-11.5v9.2h11.5V316.7z"/>
<path class="st3" d="M812.9,316.7h-11.5v9.2h11.5V316.7z"/>
<path class="st3" d="M777.4,332.5h-11.5v9.2h11.5V332.5z"/>
<path class="st3" d="M795.1,332.5h-11.5v9.2h11.5V332.5z"/>
<path class="st3" d="M812.9,332.5h-11.5v9.2h11.5V332.5z"/>
<path class="st3" d="M795.1,348.3h-11.5v9.2h11.5V348.3z"/>
<path class="st2" d="M732,306.4h-36v45h36V306.4z"/>
<path class="st3" d="M713.7,338.4c4.7,0,8.5-3.8,8.5-8.5c0-4.7-3.8-8.5-8.5-8.5c-4.7,0-8.6,3.8-8.6,8.5
	C705.1,334.5,708.9,338.4,713.7,338.4z"/>
<path class="st2" d="M816.9,485.7h-66.6v89.9h66.6V485.7z"/>
<path class="st2" d="M480.2,634.3H212.1v96.5h268.1V634.3z"/>
<path class="st2" d="M663,69.4H39v469h624V69.4z"/>
<path class="st4" d="M848,82.9H719.5v174.5H848V82.9z"/>
<path class="st5" d="M232.9,220c-1.7-4.6-5.6-5.7-5.8-7.4c0-11.9-0.1-102.9-0.1-105.8c3-4.1,5.2-8.6,6.5-13.4c0-0.1,0-0.1,0-0.2
	c0-0.1,0-0.1-0.1-0.1c0,0-0.1-0.1-0.1-0.1c-0.1,0-0.1,0-0.2,0h-1c-0.6-0.1-0.5-2.5-0.1-3.1c1.9-1.9,64.8-1.9,66.7,0
	c0.4,0.6,0.5,3-0.1,3.1h-1c-0.1,0-0.1,0-0.2,0c-0.1,0-0.1,0.1-0.1,0.1s-0.1,0.1-0.1,0.1c0,0.1,0,0.1,0,0.2c1.3,4.8,3.6,9.3,6.5,13.4
	c0,2.9-0.1,93.9-0.1,105.8c-0.2,1.7-4.1,2.7-5.8,7.4C296.4,224.6,234.6,224.6,232.9,220z"/>
<path class="st5" d="M232.9,368c-1.7-4.6-5.6-5.7-5.8-7.4c0-11.9-0.1-102.9-0.1-105.8c3-4.1,5.2-8.6,6.5-13.4c0-0.1,0-0.1,0-0.2
	c0-0.1,0-0.1-0.1-0.1c0,0-0.1-0.1-0.1-0.1c-0.1,0-0.1,0-0.2,0h-1c-0.6-0.1-0.5-2.5-0.1-3.1c1.9-1.9,64.8-1.9,66.7,0
	c0.4,0.6,0.5,3-0.1,3.1h-1c-0.1,0-0.1,0-0.2,0c-0.1,0-0.1,0.1-0.1,0.1s-0.1,0.1-0.1,0.1c0,0.1,0,0.1,0,0.2c1.3,4.8,3.6,9.3,6.5,13.4
	c0,2.9-0.1,93.9-0.1,105.8c-0.2,1.7-4.1,2.7-5.8,7.4C296.4,372.6,234.6,372.6,232.9,368z"/>
<path class="st5" d="M232.9,515.5c-1.7-4.6-5.6-5.7-5.8-7.4c0-11.9-0.1-102.9-0.1-105.8c3-4.1,5.2-8.6,6.5-13.4c0-0.1,0-0.1,0-0.2
	c0-0.1,0-0.1-0.1-0.1c0,0-0.1-0.1-0.1-0.1c-0.1,0-0.1,0-0.2,0h-1c-0.6-0.1-0.5-2.5-0.1-3.1c1.9-1.9,64.8-1.9,66.7,0
	c0.4,0.6,0.5,3-0.1,3.1h-1c-0.1,0-0.1,0-0.2,0c-0.1,0-0.1,0.1-0.1,0.1s-0.1,0.1-0.1,0.1c0,0.1,0,0.1,0,0.2c1.3,4.8,3.6,9.3,6.5,13.4
	c0,2.9-0.1,93.9-0.1,105.8c-0.2,1.7-4.1,2.7-5.8,7.4C296.4,520.2,234.6,520.2,232.9,515.5z"/>
<path class="st5" d="M488.9,219c-1.7-4.6-5.6-5.7-5.8-7.4c0-11.9-0.1-102.9-0.1-105.8c3-4.1,5.2-8.6,6.5-13.4c0-0.1,0-0.1,0-0.2
	c0-0.1,0-0.1-0.1-0.1c0,0-0.1-0.1-0.1-0.1c-0.1,0-0.1,0-0.2,0h-1c-0.6-0.1-0.5-2.5-0.1-3.1c1.9-1.9,64.8-1.9,66.7,0
	c0.5,0.6,0.5,3-0.1,3.1h-1c-0.1,0-0.1,0-0.2,0c-0.1,0-0.1,0.1-0.1,0.1s-0.1,0.1-0.1,0.1c0,0.1,0,0.1,0,0.2c1.3,4.8,3.6,9.3,6.5,13.4
	c0,2.9-0.1,93.9-0.1,105.8c-0.2,1.7-4.1,2.7-5.8,7.4C552.4,223.6,490.6,223.6,488.9,219z"/>
<path class="st5" d="M488.9,367c-1.7-4.6-5.6-5.7-5.8-7.4c0-11.9-0.1-102.9-0.1-105.8c3-4.1,5.2-8.6,6.5-13.4c0-0.1,0-0.1,0-0.2
	c0-0.1,0-0.1-0.1-0.1c0,0-0.1-0.1-0.1-0.1s-0.1,0-0.2,0h-1c-0.6-0.1-0.5-2.5-0.1-3.1c1.9-1.9,64.8-1.9,66.7,0c0.5,0.6,0.5,3-0.1,3.1
	h-1c-0.1,0-0.1,0-0.2,0c-0.1,0-0.1,0.1-0.1,0.1s-0.1,0.1-0.1,0.1c0,0.1,0,0.1,0,0.2c1.3,4.8,3.6,9.3,6.5,13.4
	c0,2.9-0.1,93.9-0.1,105.8c-0.2,1.7-4.1,2.7-5.8,7.4C552.4,371.6,490.6,371.6,488.9,367z"/>
<path class="st5" d="M488.9,514.5c-1.7-4.6-5.6-5.7-5.8-7.4c0-11.9-0.1-102.9-0.1-105.8c3-4.1,5.2-8.6,6.5-13.4c0-0.1,0-0.1,0-0.2
	c0-0.1,0-0.1-0.1-0.1c0,0-0.1-0.1-0.1-0.1c-0.1,0-0.1,0-0.2,0h-1c-0.6-0.1-0.5-2.5-0.1-3.1c1.9-1.9,64.8-1.9,66.7,0
	c0.5,0.6,0.5,3-0.1,3.1h-1c-0.1,0-0.1,0-0.2,0c-0.1,0-0.1,0.1-0.1,0.1c0,0-0.1,0.1-0.1,0.1c0,0.1,0,0.1,0,0.2
	c1.3,4.8,3.6,9.3,6.5,13.4c0,2.9-0.1,93.9-0.1,105.8c-0.2,1.7-4.1,2.7-5.8,7.4C552.4,519.2,490.6,519.2,488.9,514.5z"/>
<path class="st5" d="M147,220c-1.7-4.6-5.7-5.7-5.9-7.4c0-11.9-0.1-102.9-0.1-105.8c3-4.1,5.2-8.6,6.6-13.4c0-0.1,0-0.1,0-0.2
	c0-0.1,0-0.1-0.1-0.1c0,0-0.1-0.1-0.1-0.1c-0.1,0-0.1,0-0.2,0h-1c-0.6-0.1-0.5-2.5-0.1-3.1c2-1.9,65.6-1.9,67.6,0
	c0.5,0.6,0.5,3-0.1,3.1h-1c-0.1,0-0.1,0-0.2,0c-0.1,0-0.1,0.1-0.1,0.1s-0.1,0.1-0.1,0.1c0,0.1,0,0.1,0,0.2c1.4,4.8,3.6,9.3,6.6,13.4
	c0,2.9-0.1,93.9-0.1,105.8c-0.2,1.7-4.2,2.7-5.9,7.4C211.3,224.6,148.7,224.6,147,220z"/>
<path class="st5" d="M147,368c-1.7-4.6-5.7-5.7-5.9-7.4c0-11.9-0.1-102.9-0.1-105.8c3-4.1,5.2-8.6,6.6-13.4c0-0.1,0-0.1,0-0.2
	c0-0.1,0-0.1-0.1-0.1c0,0-0.1-0.1-0.1-0.1s-0.1,0-0.2,0h-1c-0.6-0.1-0.5-2.5-0.1-3.1c2-1.9,65.6-1.9,67.6,0c0.5,0.6,0.5,3-0.1,3.1
	h-1c-0.1,0-0.1,0-0.2,0c-0.1,0-0.1,0.1-0.1,0.1s-0.1,0.1-0.1,0.1c0,0.1,0,0.1,0,0.2c1.4,4.8,3.6,9.3,6.6,13.4
	c0,2.9-0.1,93.9-0.1,105.8c-0.2,1.7-4.2,2.7-5.9,7.4C211.3,372.6,148.7,372.6,147,368z"/>
<path class="st5" d="M147,515.5c-1.7-4.6-5.7-5.7-5.9-7.4c0-11.9-0.1-102.9-0.1-105.8c3-4.1,5.2-8.6,6.6-13.4c0-0.1,0-0.1,0-0.2
	c0-0.1,0-0.1-0.1-0.1c0,0-0.1-0.1-0.1-0.1c-0.1,0-0.1,0-0.2,0h-1c-0.6-0.1-0.5-2.5-0.1-3.1c2-1.9,65.6-1.9,67.6,0
	c0.5,0.6,0.5,3-0.1,3.1h-1c-0.1,0-0.1,0-0.2,0c-0.1,0-0.1,0.1-0.1,0.1c0,0-0.1,0.1-0.1,0.1c0,0.1,0,0.1,0,0.2
	c1.4,4.8,3.6,9.3,6.6,13.4c0,2.9-0.1,93.9-0.1,105.8c-0.2,1.7-4.2,2.7-5.9,7.4C211.3,520.2,148.7,520.2,147,515.5z"/>
<path class="st5" d="M403,219c-1.7-4.6-5.7-5.7-5.9-7.4c0-11.9-0.1-102.9-0.1-105.8c3-4.1,5.2-8.6,6.6-13.4c0-0.1,0-0.1,0-0.2
	c0-0.1,0-0.1-0.1-0.1c0,0-0.1-0.1-0.1-0.1c-0.1,0-0.1,0-0.2,0h-1c-0.6-0.1-0.5-2.5-0.1-3.1c2-1.9,65.6-1.9,67.6,0
	c0.5,0.6,0.5,3-0.1,3.1h-1c-0.1,0-0.1,0-0.2,0c-0.1,0-0.1,0.1-0.1,0.1c0,0-0.1,0.1-0.1,0.1c0,0.1,0,0.1,0,0.2
	c1.4,4.8,3.6,9.3,6.6,13.4c0,2.9-0.1,93.9-0.1,105.8c-0.2,1.7-4.2,2.7-5.9,7.4C467.3,223.6,404.7,223.6,403,219z"/>
<path class="st5" d="M403,367c-1.7-4.6-5.7-5.7-5.9-7.4c0-11.9-0.1-102.9-0.1-105.8c3-4.1,5.2-8.6,6.6-13.4c0-0.1,0-0.1,0-0.2
	c0-0.1,0-0.1-0.1-0.1c0,0-0.1-0.1-0.1-0.1c-0.1,0-0.1,0-0.2,0h-1c-0.6-0.1-0.5-2.5-0.1-3.1c2-1.9,65.6-1.9,67.6,0
	c0.5,0.6,0.5,3-0.1,3.1h-1c-0.1,0-0.1,0-0.2,0c-0.1,0-0.1,0.1-0.1,0.1c0,0-0.1,0.1-0.1,0.1c0,0.1,0,0.1,0,0.2
	c1.4,4.8,3.6,9.3,6.6,13.4c0,2.9-0.1,93.9-0.1,105.8c-0.2,1.7-4.2,2.7-5.9,7.4C467.3,371.6,404.7,371.6,403,367z"/>
<path class="st5" d="M403,514.5c-1.7-4.6-5.7-5.7-5.9-7.4c0-11.9-0.1-102.9-0.1-105.8c3-4.1,5.2-8.6,6.6-13.4c0-0.1,0-0.1,0-0.2
	c0-0.1,0-0.1-0.1-0.1c0,0-0.1-0.1-0.1-0.1c-0.1,0-0.1,0-0.2,0h-1c-0.6-0.1-0.5-2.5-0.1-3.1c2-1.9,65.6-1.9,67.6,0
	c0.5,0.6,0.6,3-0.1,3.1h-1c-0.1,0-0.1,0-0.2,0c-0.1,0-0.1,0.1-0.1,0.1c0,0-0.1,0.1-0.1,0.1c0,0.1,0,0.1,0,0.2
	c1.4,4.8,3.6,9.3,6.6,13.4c0,2.9-0.1,93.9-0.1,105.8c-0.2,1.7-4.2,2.7-5.9,7.4C467.3,519.2,404.7,519.2,403,514.5z"/>
<path class="st5" d="M61.9,220.5c-1.7-4.7-5.6-5.7-5.8-7.4c0-12-0.1-103.7-0.1-106.6c3-4.1,5.2-8.7,6.5-13.5c0-0.1,0-0.1,0-0.2
	c0-0.1,0-0.1-0.1-0.1c0,0-0.1-0.1-0.1-0.1c-0.1,0-0.1,0-0.2,0h-1c-0.6-0.1-0.5-2.5-0.1-3.1c1.9-1.9,64.8-1.9,66.7,0
	c0.5,0.6,0.5,3-0.1,3.1h-1c-0.1,0-0.1,0-0.2,0c-0.1,0-0.1,0.1-0.1,0.1c0,0-0.1,0.1-0.1,0.1c0,0.1,0,0.1,0,0.2
	c1.3,4.8,3.6,9.4,6.5,13.5c0,2.9-0.1,94.6-0.1,106.6c-0.2,1.7-4.1,2.7-5.8,7.4C125.4,225.2,63.6,225.2,61.9,220.5z"/>
<path class="st5" d="M61.9,368.5c-1.7-4.7-5.6-5.7-5.8-7.4c0-12-0.1-103.7-0.1-106.6c3-4.1,5.2-8.7,6.5-13.5c0-0.1,0-0.1,0-0.2
	c0-0.1,0-0.1-0.1-0.1c0,0-0.1-0.1-0.1-0.1c-0.1,0-0.1,0-0.2,0h-1c-0.6-0.1-0.5-2.5-0.1-3.1c1.9-1.9,64.8-1.9,66.7,0
	c0.5,0.6,0.5,3-0.1,3.1h-1c-0.1,0-0.1,0-0.2,0c-0.1,0-0.1,0.1-0.1,0.1s-0.1,0.1-0.1,0.1c0,0.1,0,0.1,0,0.2c1.3,4.8,3.6,9.4,6.5,13.5
	c0,2.9-0.1,94.6-0.1,106.6c-0.2,1.7-4.1,2.7-5.8,7.4C125.4,373.2,63.6,373.2,61.9,368.5z"/>
<path class="st5" d="M61.9,516.5c-1.7-4.7-5.6-5.7-5.8-7.4c0-12-0.1-103.7-0.1-106.6c3-4.1,5.2-8.7,6.5-13.5c0-0.1,0-0.1,0-0.2
	c0-0.1,0-0.1-0.1-0.1c0,0-0.1-0.1-0.1-0.1c-0.1,0-0.1,0-0.2,0h-1c-0.6-0.1-0.5-2.5-0.1-3.1c1.9-1.9,64.8-1.9,66.7,0
	c0.5,0.6,0.5,3-0.1,3.1h-1c-0.1,0-0.1,0-0.2,0c-0.1,0-0.1,0.1-0.1,0.1s-0.1,0.1-0.1,0.1c0,0.1,0,0.1,0,0.2c1.3,4.8,3.6,9.4,6.5,13.5
	c0,2.9-0.1,94.6-0.1,106.6c-0.2,1.7-4.1,2.7-5.8,7.4C125.4,521.2,63.6,521.2,61.9,516.5z"/>
<path class="st5" d="M317.9,219.9c-1.7-4.7-5.6-5.7-5.8-7.4c0-12-0.1-103.7-0.1-106.6c3-4.1,5.2-8.7,6.5-13.5c0-0.1,0-0.1,0-0.2
	c0-0.1,0-0.1-0.1-0.1c0,0-0.1-0.1-0.1-0.1s-0.1,0-0.2,0h-1c-0.6-0.1-0.5-2.5-0.1-3.1c1.9-1.9,64.8-1.9,66.7,0c0.4,0.6,0.5,3-0.1,3.1
	h-1c-0.1,0-0.1,0-0.2,0c-0.1,0-0.1,0.1-0.1,0.1c0,0-0.1,0.1-0.1,0.1c0,0.1,0,0.1,0,0.2c1.3,4.8,3.6,9.4,6.5,13.5
	c0,2.9-0.1,94.6-0.1,106.6c-0.2,1.7-4.1,2.7-5.8,7.4C381.4,224.6,319.6,224.6,317.9,219.9z"/>
<path class="st5" d="M317.9,367.9c-1.7-4.7-5.6-5.7-5.8-7.4c0-12-0.1-103.7-0.1-106.6c3-4.1,5.2-8.7,6.5-13.5c0-0.1,0-0.1,0-0.2
	c0-0.1,0-0.1-0.1-0.1c0,0-0.1-0.1-0.1-0.1s-0.1,0-0.2,0h-1c-0.6-0.1-0.5-2.5-0.1-3.1c1.9-1.9,64.8-1.9,66.7,0c0.4,0.6,0.5,3-0.1,3.1
	h-1c-0.1,0-0.1,0-0.2,0c-0.1,0-0.1,0.1-0.1,0.1c0,0-0.1,0.1-0.1,0.1c0,0.1,0,0.1,0,0.2c1.3,4.8,3.6,9.4,6.5,13.5
	c0,2.9-0.1,94.6-0.1,106.6c-0.2,1.7-4.1,2.7-5.8,7.4C381.4,372.6,319.6,372.6,317.9,367.9z"/>
<path class="st5" d="M317.9,515.5c-1.7-4.7-5.6-5.7-5.8-7.4c0-12-0.1-103.7-0.1-106.6c3-4.1,5.2-8.7,6.5-13.5c0-0.1,0-0.1,0-0.2
	c0-0.1,0-0.1-0.1-0.1c0,0-0.1-0.1-0.1-0.1c-0.1,0-0.1,0-0.2,0h-1c-0.6-0.1-0.5-2.5-0.1-3.1c1.9-1.9,64.8-1.9,66.7,0
	c0.4,0.6,0.5,3-0.1,3.1h-1c-0.1,0-0.1,0-0.2,0c-0.1,0-0.1,0.1-0.1,0.1s-0.1,0.1-0.1,0.1c0,0.1,0,0.1,0,0.2c1.3,4.8,3.6,9.4,6.5,13.5
	c0,2.9-0.1,94.6-0.1,106.6c-0.2,1.7-4.1,2.7-5.8,7.4C381.4,520.2,319.6,520.2,317.9,515.5z"/>
<path class="st5" d="M573.9,220.9c-1.7-4.7-5.6-5.7-5.8-7.4c0-12-0.1-103.7-0.1-106.6c3-4.1,5.2-8.7,6.5-13.5c0-0.1,0-0.1,0-0.2
	c0-0.1,0-0.1-0.1-0.1c0,0-0.1-0.1-0.1-0.1c-0.1,0-0.1,0-0.2,0h-1c-0.6-0.1-0.5-2.5-0.1-3.1c1.9-1.9,64.8-1.9,66.7,0
	c0.5,0.6,0.5,3-0.1,3.1h-1c-0.1,0-0.1,0-0.2,0c-0.1,0-0.1,0.1-0.1,0.1c0,0-0.1,0.1-0.1,0.1c0,0.1,0,0.1,0,0.2
	c1.3,4.8,3.6,9.4,6.5,13.5c0,2.9-0.1,94.6-0.1,106.6c-0.2,1.7-4.1,2.7-5.8,7.4C637.4,225.6,575.6,225.6,573.9,220.9z"/>
<path class="st5" d="M573.9,368.9c-1.7-4.7-5.6-5.7-5.8-7.4c0-12-0.1-103.7-0.1-106.6c3-4.1,5.2-8.7,6.5-13.5c0-0.1,0-0.1,0-0.2
	c0-0.1,0-0.1-0.1-0.1c0,0-0.1-0.1-0.1-0.1c-0.1,0-0.1,0-0.2,0h-1c-0.6-0.1-0.5-2.5-0.1-3.1c1.9-1.9,64.8-1.9,66.7,0
	c0.5,0.6,0.5,3-0.1,3.1h-1c-0.1,0-0.1,0-0.2,0c-0.1,0-0.1,0.1-0.1,0.1c0,0-0.1,0.1-0.1,0.1c0,0.1,0,0.1,0,0.2
	c1.3,4.8,3.6,9.4,6.5,13.5c0,2.9-0.1,94.6-0.1,106.6c-0.2,1.7-4.1,2.7-5.8,7.4C637.4,373.6,575.6,373.6,573.9,368.9z"/>
<path class="st5" d="M573.9,516.5c-1.7-4.7-5.6-5.7-5.8-7.4c0-12-0.1-103.7-0.1-106.6c3-4.1,5.2-8.7,6.5-13.5c0-0.1,0-0.1,0-0.2
	c0-0.1,0-0.1-0.1-0.1c0,0-0.1-0.1-0.1-0.1c-0.1,0-0.1,0-0.2,0h-1c-0.6-0.1-0.5-2.5-0.1-3.1c1.9-1.9,64.8-1.9,66.7,0
	c0.5,0.6,0.5,3-0.1,3.1h-1c-0.1,0-0.1,0-0.2,0c-0.1,0-0.1,0.1-0.1,0.1c0,0-0.1,0.1-0.1,0.1c0,0.1,0,0.1,0,0.2
	c1.3,4.8,3.6,9.4,6.5,13.5c0,2.9-0.1,94.6-0.1,106.6c-0.2,1.7-4.1,2.7-5.8,7.4C637.4,521.2,575.6,521.2,573.9,516.5z"/>
<path class="st6" d="M434.1,480.8h-3.7v-19.7h3.7V480.8z M442.1,480.8h-3.7v-19.7h3.7V480.8z M434.1,461.9h-3.7v-25.6h3.7V461.9z
	 M442.1,461.9h-3.7v-25.6h3.7V461.9z M423.6,441l12.7-11.3l12.7,11.3l-2.7,3.1L444,442c-0.3-0.3-0.7-0.6-1-0.9
	c-0.3-0.3-0.6-0.8-0.9-1.3l-3.7-2.8l-2.1-1.9l-2.1,1.9l-3.7,2.8c-0.3,0.5-0.6,1-0.9,1.3c-0.3,0.3-0.6,0.6-1,0.9l-2.3,2.1L423.6,441z
	 M423.6,429.4l12.7-11.3l12.7,11.3l-2.7,3.1l-10-9.1l-10,9.1L423.6,429.4z"/>
<path class="st6" d="M92.1,461.1v13.7h-3.7v-13.7H92.1z M100.1,461.1v13.7h-3.7v-13.7H100.1z M81.6,469.6l2.7-3.1l2.3,2.1
	c0.3,0.3,0.7,0.6,1,0.9c0.3,0.3,0.6,0.8,0.9,1.3l3.7,2.8l2.1,1.9l2.1-1.9l3.7-2.8c0.3-0.5,0.6-1,0.9-1.3c0.3-0.3,0.6-0.7,1-0.9
	l2.3-2.1l2.7,3.1L94.3,481L81.6,469.6z M92.1,461.9h-3.7v-24.8h3.7V461.9z M100.1,461.9h-3.7v-24.8h3.7V461.9z M92.1,437.9h-3.7
	v-13.7h3.7V437.9z M100.1,437.9h-3.7v-13.7h3.7V437.9z M81.6,429.4l12.7-11.3l12.7,11.3l-2.7,3.1l-2.3-2.1c-0.3-0.3-0.7-0.6-1-0.9
	c-0.3-0.3-0.6-0.8-0.9-1.3l-3.7-2.8l-2.1-1.9l-2.1,1.9l-3.7,2.8c-0.3,0.5-0.6,1-0.9,1.3c-0.3,0.3-0.6,0.6-1,0.9l-2.3,2.1L81.6,429.4
	z"/>
<path class="st6" d="M182.2,185.8h-3.8v-19.7h3.8V185.8z M182.2,140v26.9h-3.8V140H182.2z M167.6,134.4l12.7-11.3l12.7,11.3
	l-2.7,3.1l-10-9.1l-10,9.1L167.6,134.4z M167.6,147.9l12.7-11.3l12.7,11.3l-2.7,3.1l-5.1-4.6c-0.7-0.6-1.3-1.2-1.7-1.7
	c-0.5-0.5-0.9-1.1-1.3-1.7h-3.8c-0.4,0.6-0.8,1.2-1.3,1.7c-0.5,0.5-1.1,1.1-1.8,1.7l-5.1,4.6L167.6,147.9z"/>
<path class="st6" d="M605.1,185.8h-3.7v-19.7h3.7V185.8z M613.1,185.8h-3.7v-19.7h3.7V185.8z M612.3,158.1c-1,0-1.8-0.3-2.5-1
	c-0.7-0.7-1.1-1.5-1.1-2.6c0-1,0.4-1.9,1.1-2.6c0.7-0.7,1.5-1,2.5-1c1,0,1.9,0.3,2.6,1c0.7,0.7,1.1,1.5,1.1,2.6c0,1-0.4,1.9-1.1,2.6
	C614.1,157.7,613.3,158.1,612.3,158.1z M602.4,158.1c-0.7,0-1.3-0.2-1.8-0.5c-0.5-0.3-1-0.8-1.3-1.3c-0.3-0.5-0.5-1.2-0.5-1.8
	c0-0.7,0.2-1.3,0.5-1.8c0.3-0.5,0.8-1,1.3-1.3c0.5-0.3,1.1-0.5,1.8-0.5c1,0,1.8,0.3,2.5,1c0.7,0.7,1.1,1.5,1.1,2.6
	c0,1-0.4,1.9-1.1,2.6C604.2,157.7,603.4,158.1,602.4,158.1z M605.1,166.9h-3.7v-3.3h3.7V166.9z M613.1,166.9h-3.7v-3.3h3.7V166.9z
	 M605.1,145.4h-3.7v-3.3h3.7V145.4z M613.1,145.4h-3.7v-3.3h3.7V145.4z M605.1,142.9h-3.7v-19.7h3.7V142.9z M613.1,142.9h-3.7v-19.7
	h3.7V142.9z"/>
<path class="st6" d="M283,310.3l-1.7,3.4l-31.8-19l1.7-3.3L283,310.3z M256.6,270.2h3.7v64.6h-3.7V270.2z M272.3,270.2h3.7v64.6
	h-3.7V270.2z M264.4,270.2h3.7v64.6h-3.7V270.2z"/>
<path class="st6" d="M594.6,485.7l2.7-3.1l5.1,4.6c0.5,0.4,0.9,0.8,1.2,1.2c0.3,0.3,0.7,0.7,0.9,1c0.3,0.3,0.6,0.7,0.9,1.2v-10.7
	h3.8v10.7c0.4-0.6,0.9-1.2,1.4-1.7c0.5-0.5,1.1-1.1,1.7-1.6l5.1-4.6l2.7,3.1L607.3,497L594.6,485.7z M609.2,466.8h-3.8v-60.5h3.8
	V466.8z M592.2,471.2l18.1,0.5v3.8l-18.1,0.6V471.2z M614.3,473.6c0-0.9,0.3-1.6,0.9-2.2c0.6-0.6,1.3-0.9,2.1-0.9
	c0.8,0,1.6,0.3,2.2,0.9c0.6,0.6,0.9,1.3,0.9,2.2c0,0.8-0.3,1.6-0.9,2.1c-0.6,0.6-1.3,0.9-2.2,0.9c-0.8,0-1.5-0.3-2.1-0.9
	C614.6,475.1,614.3,474.4,614.3,473.6z"/>
</svg>
