<svg id="Layer_1" data-name="Layer 1" xmlns="http://www.w3.org/2000/svg" viewBox="0 0 1440 739.91"><defs><style>.cls-1,.cls-10,.cls-11,.cls-12,.cls-13,.cls-2,.cls-3,.cls-4,.cls-5,.cls-7,.cls-8,.cls-9{fill:none;}.cls-1,.cls-13,.cls-2{stroke:#ffc42d;}.cls-1,.cls-10,.cls-3,.cls-7{stroke-miterlimit:10;}.cls-1,.cls-10,.cls-11,.cls-13,.cls-3,.cls-7,.cls-8,.cls-9{stroke-width:5px;}.cls-2{stroke-width:5px;}.cls-3,.cls-4,.cls-9{stroke:#32c924;}.cls-4{stroke-width:5px;}.cls-10,.cls-11,.cls-5,.cls-6{stroke:#ff8eb7;}.cls-5,.cls-6{stroke-width:5px;}.cls-6{fill:#ff8eb7;}.cls-12,.cls-7,.cls-8{stroke:#28f;}.cls-12{stroke-width:5px;}</style></defs><path class="cls-1" d="M209,541.8c-3.23-36.53,19.41-46.88,32-48,11.22-1,18.62,1.42,42.11-3.22,48.63-9.63,52.14,31.73,53,40s4.22,47.72-45.16,48.64c-23.94.45-30.8,3.24-42,4.23C236.37,584.55,212.31,578.8,209,541.8Z"/><path class="cls-1" d="M224.16,540.47a24.32,24.32,0,1,0,22.09-26.32A24.29,24.29,0,0,0,224.16,540.47Z"/><path class="cls-1" d="M296.62,534.06c1.31,14.79,7.66,26.31,14.19,25.73s10.77-13,9.46-27.83-7.66-26.31-14.19-25.73S295.31,519.27,296.62,534.06Z"/><circle class="cls-2" cx="203.77" cy="542.15" r="192.27"/><path class="cls-1" d="M129.84,547c-9.7-109.67,103.38-82.74,124.66-82,92.62,6.83,94.46,52.16,95.08,66.49s2.64,62.94-84,79.42C244.69,614.79,141.83,659,129.84,547Z"/><circle class="cls-2" cx="204.14" cy="542.46" r="176.46"/><circle class="cls-2" cx="248" cy="538.24" r="7.93" transform="translate(-46.47 23.95) rotate(-5.06)"/><path class="cls-3" d="M616.8,546.27c28.11-23.55,49.55-10.9,57.69-1.18,7.24,8.64,9.49,16.09,26.73,32.71,35.71,34.37,3.8,60.91-2.46,66.33S662,674.89,633,634.91c-14.07-19.38-20.28-23.42-27.51-32C597.37,593.14,588.32,570.12,616.8,546.27Z"/><path class="cls-3" d="M626.54,557.9A24.32,24.32,0,1,0,660.76,561,24.3,24.3,0,0,0,626.54,557.9Z"/><path class="cls-3" d="M673.25,613.67c-11.38,9.53-17.2,21.34-13,26.36s16.85,1.38,28.23-8.16,17.2-21.33,13-26.36S684.63,604.14,673.25,613.67Z"/><circle class="cls-4" cx="613.5" cy="542.14" r="192.27"/><path class="cls-3" d="M567.28,484.25c84.4-70.69,127,37.47,138.54,55.36,47.38,79.87,11.26,107.31-.15,116S655.56,693.8,592.5,632.17C577.32,617.26,482.21,558.19,567.28,484.25Z"/><circle class="cls-4" cx="613.46" cy="542.62" r="176.46" transform="translate(-204.01 592.71) rotate(-45)"/><circle class="cls-4" cx="642.01" cy="576.19" r="7.93"/><circle class="cls-5" cx="1023.23" cy="542.15" r="192.27" transform="translate(-83.66 882.33) rotate(-45)"/><circle class="cls-6" cx="1023.48" cy="541.75" r="176.46" transform="translate(-83.3 882.38) rotate(-45)"/><path class="cls-7" d="M1432.89,536.87c-36.67,0-45-23.46-45-36.14,0-11.26,3.06-18.42.51-42.23-5.31-49.29,36.2-49.14,44.48-49.27s47.91,0,44.48,49.27c-1.67,23.89.5,31,.5,42.23C1477.88,513.41,1470,536.87,1432.89,536.87Z"/><path class="cls-7" d="M1432.89,521.7a24.33,24.33,0,1,0-24.27-24.32A24.3,24.3,0,0,0,1432.89,521.7Z"/><path class="cls-7" d="M1432.89,449c14.85,0,26.88-5.31,26.88-11.87s-12-11.87-26.88-11.87S1406,430.52,1406,437.08,1418,449,1432.89,449Z"/><circle class="cls-8" cx="1432.77" cy="542.15" r="192.27"/><path class="cls-7" d="M1431,616.22c-110.1,0-73.31-110.27-70.68-131.4,15-91.65,60.28-89.5,74.61-88.86s62.93,2.92,71.71,90.66C1508.74,507.8,1543.72,614.15,1431,616.22Z"/><circle class="cls-8" cx="1433.11" cy="541.82" r="176.46"/><circle class="cls-8" cx="1432.77" cy="497.75" r="7.93"/><path class="cls-3" d="M3.89,194.87c-36.67,0-45-23.46-45-36.14,0-11.26,3.06-18.42.51-42.23C-45.9,67.21-4.39,67.36,3.89,67.23s47.91,0,44.48,49.27c-1.67,23.89.5,31,.5,42.23C48.88,171.41,41,194.87,3.89,194.87Z"/><path class="cls-3" d="M3.89,179.7a24.33,24.33,0,0,0,0-48.65,24.33,24.33,0,0,0,0,48.65Z"/><path class="cls-3" d="M3.89,107c14.85,0,26.88-5.31,26.88-11.87s-12-11.87-26.88-11.87S-23,88.52-23,95.08-11,107,3.89,107Z"/><circle class="cls-9" cx="3.77" cy="200.15" r="192.27"/><path class="cls-3" d="M2,274.22c-110.1,0-73.31-110.27-70.68-131.4C-53.67,51.17-8.36,53.32,6,54s62.93,2.92,71.71,90.66C79.74,165.8,114.72,272.15,2,274.22Z"/><circle class="cls-9" cx="4.11" cy="199.82" r="176.46"/><circle class="cls-9" cx="3.77" cy="155.75" r="7.93"/><path class="cls-10" d="M408.22,200c0,36.68-23.46,45-36.14,45-11.27,0-18.42-3.05-42.24-.51-49.28,5.31-49.13-36.2-49.27-44.48s0-47.9,49.27-44.47c23.89,1.66,31-.51,42.24-.51C384.76,155,408.22,162.89,408.22,200Z"/><path class="cls-10" d="M393,200a24.32,24.32,0,1,0-24.32,24.27A24.29,24.29,0,0,0,393,200Z"/><path class="cls-10" d="M320.3,200c0-14.84-5.31-26.88-11.87-26.88s-11.87,12-11.87,26.88,5.31,26.89,11.87,26.89S320.3,214.88,320.3,200Z"/><circle class="cls-11" cx="413.5" cy="200.15" r="192.27"/><path class="cls-10" d="M487.57,201.89c0,110.1-110.28,73.31-131.4,70.67-91.66-15-89.5-60.27-88.86-74.61S270.23,135,358,126.25C379.15,124.19,485.5,89.2,487.57,201.89Z"/><circle class="cls-11" cx="413.16" cy="199.82" r="176.46"/><circle class="cls-11" cx="369.1" cy="200.15" r="7.93"/><path class="cls-7" d="M826.64,196.13c-28.48-23.1-20.17-46.56-12.18-56.41,7.09-8.75,14-12.39,27-32.49C868.36,65.61,900.52,91.86,907,97s37.22,30.17,3.52,66.28c-16.34,17.51-19.11,24.38-26.2,33.13C876.37,206.23,855.5,219.52,826.64,196.13Z"/><path class="cls-7" d="M836.2,184.34a24.32,24.32,0,1,0-3.53-34.18A24.29,24.29,0,0,0,836.2,184.34Z"/><path class="cls-7" d="M882,127.83c11.53,9.35,24.23,12.8,28.36,7.71s-1.87-16.8-13.4-26.15-24.23-12.8-28.36-7.71S870.48,118.48,882,127.83Z"/><circle class="cls-12" cx="823.23" cy="200.15" r="192.27" transform="translate(99.59 640.73) rotate(-45)"/><path class="cls-7" d="M775.24,256.59C689.71,187.26,787.73,124.77,803.09,110,872.43,48.24,906.27,78.45,917,88s47,41.9-1.39,115.58C903.87,221.31,864.07,326,775.24,256.59Z"/><circle class="cls-12" cx="823.7" cy="200.1" r="176.46" transform="translate(99.76 641.05) rotate(-45)"/><circle class="cls-12" cx="851.19" cy="165.66" r="7.93" transform="translate(186.47 722.53) rotate(-50.97)"/><path class="cls-1" d="M1232.89,194.87c-36.67,0-45-23.46-45-36.14,0-11.26,3.06-18.42.51-42.23-5.31-49.29,36.2-49.14,44.48-49.27s47.91,0,44.48,49.27c-1.67,23.89.5,31,.5,42.23C1277.88,171.41,1270,194.87,1232.89,194.87Z"/><path class="cls-1" d="M1232.89,179.7a24.33,24.33,0,1,0-24.27-24.32A24.3,24.3,0,0,0,1232.89,179.7Z"/><path class="cls-1" d="M1232.89,107c14.85,0,26.88-5.31,26.88-11.87s-12-11.87-26.88-11.87S1206,88.52,1206,95.08,1218,107,1232.89,107Z"/><circle class="cls-13" cx="1232.77" cy="200.15" r="192.27"/><path class="cls-1" d="M1231,274.22c-110.1,0-73.31-110.27-70.68-131.4,15-91.65,60.28-89.5,74.61-88.86s62.93,2.92,71.71,90.66C1308.74,165.8,1343.72,272.15,1231,274.22Z"/><circle class="cls-13" cx="1233.11" cy="199.82" r="176.46"/><circle class="cls-13" cx="1232.77" cy="155.75" r="7.93"/></svg>