<svg id="Layer_1" data-name="Layer 1" xmlns="http://www.w3.org/2000/svg" xmlns:xlink="http://www.w3.org/1999/xlink" viewBox="0 0 1879 1289.55"><defs><style>.cls-1,.cls-3,.cls-8{fill:none;}.cls-2{clip-path:url(#clip-path);}.cls-3,.cls-5{stroke:#ff8eb7;}.cls-3,.cls-8{stroke-miterlimit:10;}.cls-3,.cls-5,.cls-8{stroke-width:5px;}.cls-4{fill:#ff8eb7;}.cls-5,.cls-7{fill:#fff;}.cls-5{stroke-linejoin:round;}.cls-6{clip-path:url(#clip-path-2);}.cls-8{stroke:#28f;}</style><clipPath id="clip-path"><rect class="cls-1" y="377.55" width="942" height="823"/></clipPath><clipPath id="clip-path-2"><rect class="cls-1" x="937" y="377.55" width="942" height="823"/></clipPath></defs><g class="cls-2"><path class="cls-3" d="M939.5,380.13H2.5V1198h937Z"/><path class="cls-3" d="M2.5,1116.2h937"/><path class="cls-3" d="M2.5,1034.41h937"/><path class="cls-3" d="M2.5,952.63h937"/><path class="cls-3" d="M2.5,870.85h937"/><path class="cls-3" d="M2.5,789.05h937"/><path class="cls-3" d="M2.5,707.27h937"/><path class="cls-3" d="M2.5,625.48h937"/><path class="cls-3" d="M2.5,543.7h937"/><path class="cls-3" d="M2.5,461.91h937"/><path class="cls-3" d="M854.31,380.13V1198"/><path class="cls-3" d="M769.14,380.13V1198"/><path class="cls-3" d="M684,380.13V1198"/><path class="cls-3" d="M598.77,380.13V1198"/><path class="cls-3" d="M513.59,380.13V1198"/><path class="cls-3" d="M428.41,380.13V1198"/><path class="cls-3" d="M343.23,380.13V1198"/><path class="cls-3" d="M258,380.13V1198"/><path class="cls-3" d="M172.86,380.13V1198"/><path class="cls-3" d="M87.69,380.13V1198"/><path class="cls-4" d="M157.44,592.55l-23.79,98.3-52.1-60.23,24.92,89.21L0,659.6l106.47,83.52L0,803.35l106.47-30.68,27.18,119.88V772.67l120.07,58-78.16-87.5,110.44-67L157.44,719.83Z"/><path class="cls-5" d="M813.5,421.05l-13,62.5L756,440.05l28.5,56L711,510.55l89.5,22.5-16,83,29-68.5,54.5,57.5-27.5-72,57.5-11.5-57.5-11,57.5-70.5-68.5,43.5Z"/></g><g class="cls-6"><path class="cls-3" d="M1876.5,380.13h-937V1198h937Z"/><path class="cls-3" d="M939.5,1116.2h937"/><path class="cls-3" d="M939.5,1034.41h937"/><path class="cls-3" d="M939.5,952.63h937"/><path class="cls-3" d="M939.5,870.85h937"/><path class="cls-3" d="M939.5,789.05h937"/><path class="cls-3" d="M939.5,707.27h937"/><path class="cls-3" d="M939.5,625.48h937"/><path class="cls-3" d="M939.5,543.7h937"/><path class="cls-3" d="M939.5,461.91h937"/><path class="cls-3" d="M1791.31,380.13V1198"/><path class="cls-3" d="M1706.14,380.13V1198"/><path class="cls-3" d="M1621,380.13V1198"/><path class="cls-3" d="M1535.77,380.13V1198"/><path class="cls-3" d="M1450.59,380.13V1198"/><path class="cls-3" d="M1365.41,380.13V1198"/><path class="cls-3" d="M1280.23,380.13V1198"/><path class="cls-3" d="M1195,380.13V1198"/><path class="cls-3" d="M1109.86,380.13V1198"/><path class="cls-3" d="M1024.69,380.13V1198"/><path class="cls-5" d="M1373.5,720.05l25.5-60.5v60.5l64-40-40,61,40,20.5-40,3.5v78.5l-24-67.5-69,56,34-67-70.5-3.5,57.5-20.5-33.5-81.5Z"/></g><path class="cls-4" d="M1048.5,231.05l20.5-33.5v33.5l70.5-14.5-63,30,26,21.5h-43l-11,59-6-62.5-64.5-4.5,56.5-17L989,197.55Z"/><path class="cls-4" d="M996.48,931.55l-26.1,118.71-106-80L953,1081.3l-118,52.28,135.38-19.06v141l26.1-122,69.6,99.64-29.36-118.7,94.06,19.06-94.06-52.28L1146,970.22l-149.52,93.66Z"/><path class="cls-7" d="M1199.61,378.68a18.56,18.56,0,0,0,4.05,11.95,91.22,91.22,0,0,0,10.13,10.53,108.3,108.3,0,0,1,12.15,12.55,61.68,61.68,0,0,1,10.12,18.23q4.05,10.94,4,27.74,0,16.6-4,27.74a61.68,61.68,0,0,1-10.12,18.23,124,124,0,0,1-12.15,12.76,80.48,80.48,0,0,0-10.13,10.32,18.56,18.56,0,0,0-4.05,11.95,18.34,18.34,0,0,0,4.05,12.15,70.28,70.28,0,0,0,10.13,9.72,87.24,87.24,0,0,1,12.15,11.54q6.07,6.88,10.12,18.23t4,29.36q0,16.61-4,27.74a61.14,61.14,0,0,1-10.12,18.43,124,124,0,0,1-12.15,12.76,79.87,79.87,0,0,0-10.13,10.33,18.24,18.24,0,0,0-4.05,11.74,18.56,18.56,0,0,0,4.05,12A80.51,80.51,0,0,0,1213.79,725a122.83,122.83,0,0,1,12.15,12.75,61.68,61.68,0,0,1,10.12,18.23q4.05,10.93,4,27.74,0,16.61-4,27.54a61.14,61.14,0,0,1-10.12,18.43,108.3,108.3,0,0,1-12.15,12.55,91.22,91.22,0,0,0-10.13,10.53,18.56,18.56,0,0,0-4.05,11.95q0,9.32,9.52,18.23a71.94,71.94,0,0,0,21.67,14l-21.27,46.17a82.9,82.9,0,0,1-31.38-19.24,99,99,0,0,1-20.86-28.75q-7.5-15.79-7.49-30.38,0-16.8,4-27.74A61.68,61.68,0,0,1,1164,818.71,122.83,122.83,0,0,1,1176.12,806a80.51,80.51,0,0,0,10.13-10.33,18.56,18.56,0,0,0,4-12,18,18,0,0,0-4.46-11.95,89.09,89.09,0,0,0-10.73-10.53,122.47,122.47,0,0,1-12.76-12.55,65.05,65.05,0,0,1-10.73-18.43q-4.26-10.94-4.25-27.54,0-16.8,4.25-27.54a62.51,62.51,0,0,1,10.73-18,133.63,133.63,0,0,1,12.76-12.35,72.18,72.18,0,0,0,10.73-10.53,18.82,18.82,0,0,0,4.46-12.56,18.34,18.34,0,0,0-4-12.15,63.24,63.24,0,0,0-10.13-9.52A98,98,0,0,1,1164,588.27q-6.08-6.88-10.12-18.23t-4-29.36q0-16.8,4-27.74A61.68,61.68,0,0,1,1164,494.71a108.3,108.3,0,0,1,12.15-12.55,91.22,91.22,0,0,0,10.13-10.53,18.56,18.56,0,0,0,4-11.95,17.23,17.23,0,0,0-4.46-11.74,72.18,72.18,0,0,0-10.73-10.53,142.06,142.06,0,0,1-12.76-12.76,65.8,65.8,0,0,1-10.73-18.23q-4.26-11.13-4.25-27.74,0-18,3.44-29.16,3.64-11.13,8.71-18,5.26-6.88,10.12-12.35a46.54,46.54,0,0,0,8.1-11.95q3-6.69,2-17.42h53.46q1.82,20.25-1.22,33-2.84,12.76-8.1,20.66a76.66,76.66,0,0,1-10.93,13,93,93,0,0,0-9.52,10.12A19,19,0,0,0,1199.61,378.68Zm132.24-23.29-36,41.92L1265,369q-13.37-12.34-24.3-23.89a171.2,171.2,0,0,1-18.83-24.71h-52.25a163.15,163.15,0,0,1-19,24.71q-10.74,11.54-24.1,23.89l-30.78,28.35-36-41.92,136.09-122.51Z"/><path class="cls-7" d="M596.64,940.45l-12.1,95.83h30.25v50.34h-37l-9.2,69.93H505.41l9.2-69.93h-46l-9.2,69.93H396.27l8.71-69.93h-28.8v-50.34h35.58l12.58-95.83H394.09V889.87h37l8.71-68.73h63.64L494,889.87h46.22l9.19-68.73h63.17l-9.2,68.73H632.7v50.58Zm-121.72,95.83h46l12.58-95.83h-46Z"/><path class="cls-8" d="M598.41,940.45l-12.1,95.83h30.25v50.34h-37l-9.19,69.93H507.18l9.19-69.93h-46l-9.19,69.93H398l8.72-69.93H378v-50.34h35.57l12.59-95.83H395.86V889.87h37l8.71-68.73h63.65l-9.44,68.73H542l9.2-68.73h63.16l-9.19,68.73h29.28v50.58Zm-121.73,95.83h46l12.59-95.83h-46Z"/><path class="cls-8" d="M1195.77,232.88,1059.68,355.39l36,41.92L1126.51,369q13.37-12.34,24.2-24c1.12-1.2,2.22-2.43,3.3-3.66a80.92,80.92,0,0,0-3.1,8.22q-3.54,11.14-3.54,29.16,0,16.6,4.35,27.64a62.22,62.22,0,0,0,10.73,18.33,118.38,118.38,0,0,0,12.76,12.65,89,89,0,0,1,10.73,10.53,17.83,17.83,0,0,1,4.36,11.85,18.56,18.56,0,0,1-4,11.95,85.6,85.6,0,0,1-10.13,10.43A114.75,114.75,0,0,0,1164,494.71a61.68,61.68,0,0,0-10.12,18.23q-4,10.93-4,27.74,0,18,4,29.36T1164,588.27a92.05,92.05,0,0,0,12.15,11.64,66.37,66.37,0,0,1,10.13,9.62,18.34,18.34,0,0,1,4,12.15,19.07,19.07,0,0,1-4.36,12.56,80.23,80.23,0,0,1-10.73,10.52,121,121,0,0,0-12.76,12.36A59.83,59.83,0,0,0,1151.72,675q-4.35,10.83-4.35,27.64,0,16.61,4.35,27.64a62.22,62.22,0,0,0,10.73,18.33,118.38,118.38,0,0,0,12.76,12.65,89,89,0,0,1,10.73,10.53,17.83,17.83,0,0,1,4.36,11.85,18.56,18.56,0,0,1-4,12,85.6,85.6,0,0,1-10.13,10.43A114.75,114.75,0,0,0,1164,818.71a61.68,61.68,0,0,0-10.12,18.23q-4,10.93-4,27.74,0,14.58,7.49,30.37a99.31,99.31,0,0,0,21,28.86,82.62,82.62,0,0,0,31.28,19.14l21.27-46.17a72,72,0,0,1-21.67-14q-9.53-8.91-9.52-18.22a18.56,18.56,0,0,1,4.05-11.95,85.6,85.6,0,0,1,10.13-10.43,114.75,114.75,0,0,0,12.15-12.65,61.41,61.41,0,0,0,10.12-18.33q4.05-11,4-27.64,0-16.81-4-27.74a61.68,61.68,0,0,0-10.12-18.23,114.75,114.75,0,0,0-12.15-12.65,85.6,85.6,0,0,1-10.13-10.43,18.56,18.56,0,0,1-4.05-12,18.27,18.27,0,0,1,4.05-11.75,84.85,84.85,0,0,1,10.13-10.42,115.78,115.78,0,0,0,12.15-12.66,61.14,61.14,0,0,0,10.12-18.43q4.05-11.13,4-27.74,0-18-4-29.36t-10.12-18.23a92.05,92.05,0,0,0-12.15-11.64,66.37,66.37,0,0,1-10.13-9.62,18.34,18.34,0,0,1-4.05-12.15,18.56,18.56,0,0,1,4.05-11.95,85.6,85.6,0,0,1,10.13-10.43,114.75,114.75,0,0,0,12.15-12.65,61.41,61.41,0,0,0,10.12-18.33q4.05-11,4-27.64,0-16.8-4-27.74a61.68,61.68,0,0,0-10.12-18.23,115.64,115.64,0,0,0-12.15-12.65,85.6,85.6,0,0,1-10.13-10.43,18.54,18.54,0,0,1-4.05-11.95,19.07,19.07,0,0,1,4-12.25,92.17,92.17,0,0,1,9.52-10.13,74.19,74.19,0,0,0,10.83-13,50.49,50.49,0,0,0,5.7-11.76A166.86,166.86,0,0,0,1240.82,345q10.83,11.66,24.2,24l30.78,28.35,36-41.92Z"/><polygon class="cls-4" points="1622.38 108.77 1633.11 27.57 1643.83 98.04 1744.94 44.43 1683.66 119.49 1728.09 147.06 1666.81 140.94 1666.81 232.88 1639.23 148.6 1585.62 203.75 1625.45 130.23 1550.38 91.92 1622.38 108.77"/></svg>