<svg id="Layer_1" data-name="Layer 1" xmlns="http://www.w3.org/2000/svg" xmlns:xlink="http://www.w3.org/1999/xlink" viewBox="0 0 1453.1 1107.98"><defs><style>.cls-1,.cls-3,.cls-8{fill:none;}.cls-2{clip-path:url(#clip-path);}.cls-3,.cls-5{stroke:#ff8eb7;}.cls-3,.cls-8{stroke-miterlimit:10;}.cls-3,.cls-5,.cls-8{stroke-width:5px;}.cls-4{fill:#ff8eb7;}.cls-5,.cls-7{fill:#fff;}.cls-5{stroke-linejoin:round;}.cls-6{clip-path:url(#clip-path-2);}.cls-8{stroke:#28f;}</style><clipPath id="clip-path"><rect class="cls-1" y="195.98" width="942" height="823"/></clipPath><clipPath id="clip-path-2"><rect class="cls-1" x="937" y="195.98" width="942" height="823"/></clipPath></defs><g class="cls-2"><path class="cls-3" d="M939.5,198.56H2.5v817.87h937Z"/><path class="cls-3" d="M2.5,934.63h937"/><path class="cls-3" d="M2.5,852.84h937"/><path class="cls-3" d="M2.5,771.06h937"/><path class="cls-3" d="M2.5,689.28h937"/><path class="cls-3" d="M2.5,607.48h937"/><path class="cls-3" d="M2.5,525.7h937"/><path class="cls-3" d="M2.5,443.91h937"/><path class="cls-3" d="M2.5,362.13h937"/><path class="cls-3" d="M2.5,280.34h937"/><path class="cls-3" d="M854.31,198.56v817.87"/><path class="cls-3" d="M769.14,198.56v817.87"/><path class="cls-3" d="M684,198.56v817.87"/><path class="cls-3" d="M598.77,198.56v817.87"/><path class="cls-3" d="M513.59,198.56v817.87"/><path class="cls-3" d="M428.41,198.56v817.87"/><path class="cls-3" d="M343.23,198.56v817.87"/><path class="cls-3" d="M258,198.56v817.87"/><path class="cls-3" d="M172.86,198.56v817.87"/><path class="cls-3" d="M87.69,198.56v817.87"/><path class="cls-4" d="M156.86,447.57,138.14,524.9l-41-47.38,19.6,70.18L33,500.32,116.76,566,33,613.41l83.76-24.14,21.38,94.31V589.27L232.6,634.9l-61.48-68.84L258,513.35,156.86,547.7Z"/><path class="cls-5" d="M813.5,239.48l-13,62.5L756,258.48l28.5,56L711,329l89.5,22.5-16,83,29-68.5,54.5,57.5-27.5-72L898,340l-57.5-11,57.5-70.5L829.5,302Z"/></g><g class="cls-6"><path class="cls-3" d="M1451,1019V201.11"/><path class="cls-3" d="M1454.1,198.56H940.5v817.87h513.6"/><path class="cls-3" d="M940.5,934.63h513.6"/><path class="cls-3" d="M940.5,852.84h513.6"/><path class="cls-3" d="M940.5,771.06h513.6"/><path class="cls-3" d="M940.5,689.28h513.6"/><path class="cls-3" d="M940.5,607.48h513.6"/><path class="cls-3" d="M940.5,525.7h513.6"/><path class="cls-3" d="M940.5,443.91h513.6"/><path class="cls-3" d="M940.5,362.13h513.6"/><path class="cls-3" d="M940.5,280.34h513.6"/><path class="cls-3" d="M1366.41,198.56v817.87"/><path class="cls-3" d="M1281.23,198.56v817.87"/><path class="cls-3" d="M1196,198.56v817.87"/><path class="cls-3" d="M1110.86,198.56v817.87"/><path class="cls-3" d="M1025.69,198.56v817.87"/><path class="cls-5" d="M1384.46,538.48,1410,478v60.5l64-40-40,61,40,20.5-40,3.5V662l-24-67.5-69,56,34-67-70.5-3.5,57.5-20.5-33.5-81.5Z"/></g><path class="cls-4" d="M1048.5,49.48,1069,16v33.5L1139.5,35l-63,30,26,21.5h-43l-11,59-6-62.5L978,78.48l56.5-17L989,16Z"/><path class="cls-4" d="M996.48,750l-26.1,118.71-106-80,88.62,111L835,952,970.38,933v141l26.1-122,69.6,99.64-29.36-118.7L1130.78,952l-94.06-52.28,109.28-111L996.48,882.31Z"/><path class="cls-7" d="M1199.61,197.11a18.58,18.58,0,0,0,4.05,11.95,90.82,90.82,0,0,0,10.13,10.53,109.13,109.13,0,0,1,12.15,12.55,61.64,61.64,0,0,1,10.12,18.23q4.05,10.94,4,27.74,0,16.61-4,27.74a61.64,61.64,0,0,1-10.12,18.23,123.1,123.1,0,0,1-12.15,12.76,80.31,80.31,0,0,0-10.13,10.32,18.58,18.58,0,0,0-4.05,11.95,18.33,18.33,0,0,0,4.05,12.15,70,70,0,0,0,10.13,9.72,87.26,87.26,0,0,1,12.15,11.54q6.07,6.89,10.12,18.23t4,29.36q0,16.61-4,27.74a61.09,61.09,0,0,1-10.12,18.43A123.1,123.1,0,0,1,1213.79,499a80.39,80.39,0,0,0-10.13,10.33,18.27,18.27,0,0,0-4.05,11.74,18.53,18.53,0,0,0,4.05,12,80.31,80.31,0,0,0,10.13,10.32,123,123,0,0,1,12.15,12.75,61.64,61.64,0,0,1,10.12,18.23q4.05,10.94,4,27.74,0,16.61-4,27.54a61.09,61.09,0,0,1-10.12,18.43,109.13,109.13,0,0,1-12.15,12.55,91.63,91.63,0,0,0-10.13,10.53,18.58,18.58,0,0,0-4.05,11.95q0,9.32,9.52,18.23a71.94,71.94,0,0,0,21.67,14l-21.27,46.17a83,83,0,0,1-31.38-19.24,99,99,0,0,1-20.86-28.75q-7.5-15.79-7.49-30.38,0-16.8,4-27.74a61.53,61.53,0,0,1,10.2-18.3,122.3,122.3,0,0,1,12.12-12.71,80.39,80.39,0,0,0,10.13-10.33,18.56,18.56,0,0,0,4-12,18,18,0,0,0-4.46-12,88.21,88.21,0,0,0-10.73-10.53,122.92,122.92,0,0,1-12.76-12.55,65,65,0,0,1-10.73-18.43q-4.26-10.93-4.25-27.54,0-16.8,4.25-27.54a62.61,62.61,0,0,1,10.73-18,134.07,134.07,0,0,1,12.76-12.35,72.67,72.67,0,0,0,10.73-10.53,18.79,18.79,0,0,0,4.46-12.56,18.32,18.32,0,0,0-4-12.15,63,63,0,0,0-10.13-9.52A97.51,97.51,0,0,1,1164,406.7q-6.07-6.88-10.12-18.23t-4-29.36q0-16.8,4-27.74A61.64,61.64,0,0,1,1164,313.14a109.13,109.13,0,0,1,12.15-12.55,90.82,90.82,0,0,0,10.13-10.53,18.53,18.53,0,0,0,4-11.95,17.25,17.25,0,0,0-4.46-11.74,72.67,72.67,0,0,0-10.73-10.53,142.28,142.28,0,0,1-12.76-12.76,65.67,65.67,0,0,1-10.73-18.23q-4.26-11.13-4.25-27.74,0-18,3.44-29.16,3.64-11.13,8.71-18,5.26-6.88,10.12-12.35a46.41,46.41,0,0,0,8.1-11.95q3-6.69,2-17.42h53.46q1.82,20.25-1.22,33-2.84,12.77-8.1,20.66a76.4,76.4,0,0,1-10.93,13,93,93,0,0,0-9.52,10.12A19,19,0,0,0,1199.61,197.11Zm132.24-23.29-36,41.92L1265,187.43q-13.37-12.35-24.3-23.89a171.11,171.11,0,0,1-18.83-24.71h-52.25a163.11,163.11,0,0,1-19,24.71q-10.74,11.53-24.1,23.89l-30.78,28.35-36-41.92L1195.83,51.35Z"/><path class="cls-7" d="M596.64,758.88l-12.1,95.83h30.25v50.34h-37L568.59,975H505.41l9.2-69.93h-46L459.41,975H396.27L405,905.05h-28.8V854.71h35.58l12.58-95.83H394.09V708.3h37l8.71-68.73h63.64L494,708.3h46.22l9.19-68.73h63.17l-9.2,68.73H632.7v50.58ZM474.92,854.71h46l12.58-95.83h-46Z"/><path class="cls-8" d="M598.41,758.88l-12.1,95.83h30.25v50.34h-37L570.37,975H507.18l9.19-69.93h-46L461.18,975H398l8.72-69.93H378V854.71h35.57l12.59-95.83h-30.3V708.3h37l8.71-68.73h63.65l-9.44,68.73H542l9.2-68.73h63.16l-9.19,68.73h29.28v50.58ZM476.68,854.71h46l12.59-95.83h-46Z"/><path class="cls-8" d="M1195.77,51.31,1059.68,173.82l36,41.92,30.83-28.31q13.37-12.35,24.2-24c1.12-1.2,2.22-2.43,3.3-3.66a80.58,80.58,0,0,0-3.1,8.22q-3.54,11.14-3.54,29.16,0,16.6,4.35,27.64a62.24,62.24,0,0,0,10.73,18.33,119.07,119.07,0,0,0,12.76,12.65,88.21,88.21,0,0,1,10.73,10.53,17.84,17.84,0,0,1,4.36,11.85,18.53,18.53,0,0,1-4,12,84.6,84.6,0,0,1-10.13,10.43A115.06,115.06,0,0,0,1164,313.14a61.64,61.64,0,0,0-10.12,18.23q-4,10.94-4,27.74,0,18,4,29.36T1164,406.7a92.21,92.21,0,0,0,12.15,11.64,66.36,66.36,0,0,1,10.13,9.62,18.32,18.32,0,0,1,4,12.15,19.1,19.1,0,0,1-4.36,12.56,79.61,79.61,0,0,1-10.73,10.52,120.12,120.12,0,0,0-12.76,12.36,59.92,59.92,0,0,0-10.71,17.88q-4.35,10.83-4.35,27.64,0,16.6,4.35,27.64A62.24,62.24,0,0,0,1162.45,567a119.07,119.07,0,0,0,12.76,12.65,88.21,88.21,0,0,1,10.73,10.53,17.84,17.84,0,0,1,4.36,11.85,18.56,18.56,0,0,1-4,12,84.6,84.6,0,0,1-10.13,10.43A115.34,115.34,0,0,0,1164,637.14a61.64,61.64,0,0,0-10.12,18.23q-4,10.93-4,27.74,0,14.58,7.49,30.37a99.19,99.19,0,0,0,21,28.86,82.68,82.68,0,0,0,31.28,19.14l21.27-46.17a71.94,71.94,0,0,1-21.67-14q-9.52-8.91-9.52-18.22a18.58,18.58,0,0,1,4-12,84.6,84.6,0,0,1,10.13-10.43,114.33,114.33,0,0,0,12.15-12.65,61.48,61.48,0,0,0,10.12-18.33q4-11,4-27.64,0-16.82-4-27.74a61.64,61.64,0,0,0-10.12-18.23,114.33,114.33,0,0,0-12.15-12.65A84.6,84.6,0,0,1,1203.78,533a18.53,18.53,0,0,1-4-12,18.3,18.3,0,0,1,4-11.75,84.52,84.52,0,0,1,10.13-10.42,116.25,116.25,0,0,0,12.15-12.66,61.09,61.09,0,0,0,10.12-18.43q4-11.13,4-27.74,0-18-4-29.36t-10.12-18.23a92.21,92.21,0,0,0-12.15-11.64,66.36,66.36,0,0,1-10.13-9.62,18.33,18.33,0,0,1-4-12.15,18.58,18.58,0,0,1,4-12,84.6,84.6,0,0,1,10.13-10.43A114.33,114.33,0,0,0,1226.06,324a61.48,61.48,0,0,0,10.12-18.33q4-11,4-27.64,0-16.8-4-27.74a61.64,61.64,0,0,0-10.12-18.23,115.25,115.25,0,0,0-12.15-12.65A84.6,84.6,0,0,1,1203.78,209a18.52,18.52,0,0,1-4-12,19.1,19.1,0,0,1,4-12.25,92.11,92.11,0,0,1,9.52-10.13,74.48,74.48,0,0,0,10.83-13,50.52,50.52,0,0,0,5.7-11.76,166.55,166.55,0,0,0,11,13.53q10.83,11.65,24.2,24l30.78,28.35,36-41.92Z"/></svg>